<?xml version="1.0" encoding="UTF-8" standalone="no"?>
<!DOCTYPE svg PUBLIC "-//W3C//DTD SVG 1.1//EN" "http://www.w3.org/Graphics/SVG/1.1/DTD/svg11.dtd">
<svg xmlns="http://www.w3.org/2000/svg">
<metadata>
Created by FontPrep 20130207 at Tue Jul  1 14:44:14 2014
 By Mauro Constantinescu
(c) 1989, 1991, 2002 Adobe Systems Incorporated. All rights reserved.
</metadata>
<defs>
<font id="4608327e51677f0f16345bfb21edc3eb" horiz-adv-x="1024">
  <font-face font-family="BauerBodoniStd-BoldItalic" font-weight="700" font-style="italic" font-stretch="normal" units-per-em="2048" panose-1="2 7 7 3 8 7 5 9 3 3" ascent="1505" descent="-543" x-height="913" cap-height="1442" bbox="-424 -590 2181 1974" underline-thickness="102" underline-position="-102" slope="-12" unicode-range="U+0020-FB02"/>
<missing-glyph horiz-adv-x="1200" d="M279 1239v-1044l348 522zM340 102h696l-348 523zM750 717l348 -522v1044zM688 809l348 522h-696zM176 0v1434h1024v-1434h-1024z"/>
    <glyph glyph-name="f_i" unicode="fi" horiz-adv-x="1251" d="M932 1505q126 0 194 -33q68 -32 96 -76t28 -108t-43 -101q-42 -38 -100 -38t-99 36t-41 85q0 82 83 129q28 16 27 26q-1 53 -141 55q-54 0 -115 -29q-61 -30 -106 -88q-45 -59 -76 -109q-55 -89 -121 -365h455q125 0 188 45l-223 -731q-31 -109 -31 -111q0 -43 37 -43 q43 1 96 59t78 107l29 -16q-127 -223 -303 -224q-62 -1 -116 47t-54 105t24 139l183 586h-369l-115 -524q-33 -144 -106 -320q-74 -176 -137 -286q-64 -110 -148 -188t-156 -77q-72 0 -128 35q-54 36 -54 98t37 96t96 34t93 -34q32 -34 32 -79t-26 -75t-62 -34v-4 q94 0 137 73t67 210q175 977 206 1075h-148l9 37h149q193 616 674 616z"/>
    <glyph glyph-name="f_l" unicode="fl" horiz-adv-x="1251" d="M936 1505q131 0 192 -86l191 86l-381 -1302q-31 -109 -31 -111q0 -43 37 -43q43 1 96 59t78 107l29 -16q-127 -223 -303 -224q-62 -1 -116 47t-54 105t24 139l281 959q-98 23 -98 102t49 110q16 11 16 19t-17 16t-53 9q-36 0 -81 -22q-45 -23 -79 -65q-73 -91 -102 -176 q-29 -86 -42 -130t-30 -110q-17 -67 -24 -89h176l-8 -37h-174l-115 -524q-33 -144 -106 -320q-74 -176 -137 -286q-64 -110 -148 -188t-156 -77q-72 0 -128 35q-54 36 -54 98t37 96t96 34t93 -34q32 -34 32 -79t-26 -75t-62 -34v-4q94 0 137 73t67 210q175 977 206 1075 h-148l9 37h149q193 616 678 616z"/>
    <glyph glyph-name=".notdef" horiz-adv-x="1200" d="M279 1239v-1044l348 522zM340 102h696l-348 523zM750 717l348 -522v1044zM688 809l348 522h-696zM176 0v1434h1024v-1434h-1024z"/>
    <glyph glyph-name=".null" horiz-adv-x="0"/>
    <glyph glyph-name="nonmarkingreturn" horiz-adv-x="681"/>
    <glyph glyph-name="space" unicode=" " horiz-adv-x="569"/>
    <glyph glyph-name="exclam" unicode="!" horiz-adv-x="681" d="M354 153q0 -57 -46 -113t-107 -56t-96 34q-33 35 -33 91q0 57 46 113t107 56t95 -34q34 -35 34 -91zM291 387l-25 6q94 408 99 623q0 127 -50 201q160 86 260 258q41 -195 119 -273q-105 -77 -189 -262t-142 -351q-58 -165 -72 -202z"/>
    <glyph glyph-name="quotedbl" unicode="&quot;" horiz-adv-x="1024" d="M744 844q-46 0 -54 63l-31 342q-8 61 -8 90q0 135 92 136q92 0 93 -136l-39 -432q-7 -63 -53 -63zM416 844q-46 0 -54 63l-30 342q-8 61 -8 90q0 135 92 136q92 0 92 -136l-6 -90l-33 -342q-7 -63 -53 -63z"/>
    <glyph glyph-name="numbersign" unicode="#" d="M711 578l37 286h-232l-37 -286h232zM238 0l59 430h-197l21 148h198l37 286h-196l20 148h197l61 430h158l-59 -430h233l59 430h160l-59 -430h196l-20 -148h-199l-37 -286h197l-20 -148h-197l-62 -430h-157l59 430h-233l-60 -430h-159z"/>
    <glyph glyph-name="dollar" unicode="$" d="M281 1016q0 166 126 304t332 138q37 0 47 -2l66 223h47l-65 -227q90 -14 206 -66t133 -53q18 -1 34 25q17 26 20 28l24 -8q-78 -227 -127 -422l-30 7q6 47 6 90q0 139 -74 239t-203 121l-139 -475q83 -41 104 -50t62 -31t54 -32q13 -11 46 -33t45 -37t34 -40 q52 -59 52 -156q1 -239 -157 -407t-394 -168q-59 0 -120 14l-68 -236h-47l72 246q-75 23 -177 78t-133 55q-57 0 -92 -73l-26 10q123 377 153 491l31 -10l-6 -88q0 -358 260 -430l178 608q-67 31 -105 53q-114 69 -149 168q-20 61 -20 146zM897 381q0 55 -47 104t-84 67 q-97 48 -172 79l-174 -600q41 -10 110 -11q166 0 266 96t101 265zM723 1421q-47 -1 -122 -25t-130 -82t-55 -133t58 -123t169 -102l133 463q-6 2 -53 2z"/>
    <glyph glyph-name="percent" unicode="%" horiz-adv-x="2048" d="M1368 -16q-128 0 -192 83t-64 197q0 195 127 338t289 143q134 0 198 -85t64 -197q0 -183 -122 -331t-300 -148zM514 696q-128 0 -192 83t-64 198q0 195 127 338t289 143q134 0 198 -85t64 -197q0 -182 -122 -331t-300 -149zM1642 590q0 131 -110 131q-60 0 -114 -75 t-87 -176q-71 -217 -71 -298q0 -164 110 -164q59 0 114 72q90 120 139 361q19 94 19 149zM496 -33l952 1508h88l-950 -1508h-90zM788 1303q0 131 -110 131q-60 0 -114 -75q-87 -120 -139 -366q-19 -88 -19 -139t26 -92t85 -41q58 0 113 72q90 120 139 361q19 94 19 149z"/>
    <glyph glyph-name="ampersand" unicode="&amp;" horiz-adv-x="1593" d="M1063 1154q0 71 -49 124t-123 53t-109 -46q-79 -104 29 -402q70 31 118 61t91 84q43 55 43 126zM567 756q-102 -41 -156 -125t-55 -197q-12 -116 59 -234t163 -122q102 0 208 155q-127 269 -219 523zM1120 -33q-100 -1 -173 55t-138 177q-188 -231 -397 -232 q-130 -1 -228 101t-98 234t61 211q25 32 41 52t54 48t64 48q27 20 90 51q64 30 161 79q-31 109 -31 204q0 153 89 263t239 110q110 0 178 -60t68 -162t-84 -175q-84 -74 -193 -119q72 -195 158 -377q100 121 170 177q71 56 143 56t115 -44q43 -45 43 -115t-42 -109t-102 -39 t-100 34q-39 34 -39 81t15 78q-4 8 -22 8t-68 -50t-95 -116q8 -16 33 -67q52 -106 94 -167q61 -89 136 -87q47 0 86 43t55 94l33 -12q-35 -106 -126 -190q-90 -84 -190 -83z"/>
    <glyph glyph-name="quotesingle" unicode="'" horiz-adv-x="569" d="M342 844q-45 0 -53 63l-31 342q-8 61 -8 90q0 135 92 136q92 0 92 -136l-6 -90l-33 -342q-8 -63 -53 -63z"/>
    <glyph glyph-name="parenleft" unicode="(" horiz-adv-x="681" d="M129 -35q0 447 166 843t483 710l66 -76q-604 -643 -604 -1458q0 -170 61 -469l-104 -29q-3 28 -17 94q-50 248 -51 385z"/>
    <glyph glyph-name="parenright" unicode=")" horiz-adv-x="681" d="M379 1020q0 170 -62 469l105 29q10 -65 26 -146q17 -82 29 -154t12 -180q0 -446 -166 -842t-483 -710l-65 76q604 643 604 1458z"/>
    <glyph glyph-name="asterisk" unicode="*" d="M307 725q0 10 33 51t33 47q0 5 -29 21t-29 32t37 17q160 0 305 96q-122 74 -251 74h-70q-27 0 -27 20q1 12 27 31q26 18 26 28t-33 50q-34 41 -34 57q0 33 84 -1q43 -17 50 -17t13 38t23 38q25 0 47 -73q38 -122 162 -218q16 49 16 107q0 57 -23 147t-23 98t12 8t32 -16 t34 -16t44 48q29 50 45 50q25 0 25 -64l-2 -48v-13q0 -12 10 -12l41 6q33 -1 33 -13q0 -28 -51 -64q-114 -87 -165 -228q131 16 281 113q38 26 43 26q18 0 18 -17l-16 -61q0 -15 62 -29t63 -34q0 -25 -62 -41t-63 -21q0 -4 12 -26t13 -33q1 -23 -15 -23t-108 56t-228 65 q49 -115 160 -207q74 -58 74 -72t-41 -18t-41 -12l4 -72q0 -49 -27 -49q-20 0 -51 46t-35 46t-22 -18t-37 -19q-20 0 -20 21q0 6 15 68t15 118t-20 152q-109 -100 -162 -254q-14 -51 -35 -52q-12 0 -22 36t-17 36l-106 -35q-27 0 -27 29z"/>
    <glyph glyph-name="plus" unicode="+" horiz-adv-x="1228" d="M528 604v432h172v-432h433v-172h-433v-432h-172v432h-432v172h432z"/>
    <glyph glyph-name="comma" unicode="," horiz-adv-x="569" d="M231 -20q0 14 -7 14t-27 -4q-12 -6 -49 -6t-73 36t-36 98q0 60 44 110q43 50 109 50t102 -48t36 -111q0 -143 -116 -283t-259 -188l-6 35q88 23 185 117t97 180z"/>
    <glyph glyph-name="hyphen" unicode="-" horiz-adv-x="1024" d="M152 444l53 172h622l-53 -172h-622z"/>
    <glyph glyph-name="period" unicode="." horiz-adv-x="569" d="M330 153q0 -57 -46 -113t-108 -56t-95 34q-34 34 -34 91t46 113q45 56 107 56t96 -34q34 -35 34 -91z"/>
    <glyph glyph-name="slash" unicode="/" horiz-adv-x="796" d="M944 1475l-846 -1508h-182l846 1508h182z"/>
    <glyph glyph-name="zero" unicode="0" d="M80 536q0 116 50 280q114 373 363 547q136 95 271 95t215 -81q143 -145 142 -387t-111 -495t-283 -393q-55 -45 -138 -82q-83 -36 -164 -36t-154 49t-112 129q-79 158 -79 374zM289 205q0 -76 32 -130q32 -55 85 -55q52 0 82 18t69 66q100 129 227 554q127 424 127 594 t-133 169q-94 0 -188 -161q-154 -266 -261 -784q-40 -194 -40 -271z"/>
    <glyph glyph-name="one" unicode="1" d="M152 0l10 37h139l334 1192q-172 -94 -389 -170l6 39q350 129 694 360h35l-397 -1421h145l-8 -37h-569z"/>
    <glyph glyph-name="two" unicode="2" d="M801 1235q0 82 -52 134q-53 52 -151 52t-200 -68q-101 -69 -101 -124t89 -77q34 -7 62 -38t27 -83q0 -52 -34 -92q-33 -40 -97 -40t-98 49t-35 119q0 179 130 285t306 106t294 -84t118 -254q0 -115 -48 -212t-122 -162q-153 -134 -374 -249q-222 -115 -333 -251h596 q66 0 117 129h39l-199 -375h-749q57 163 231 332q74 72 156 146q181 165 305 340q123 175 123 417z"/>
    <glyph glyph-name="three" unicode="3" d="M342 819h174q219 0 275 178q2 6 16 47q51 149 51 238q0 139 -205 139q-75 0 -139 -35t-63 -79q-1 -9 35 -17t72 -37t36 -85t-34 -88t-94 -32t-94 38q-36 36 -36 98q0 122 114 198t261 76t264 -76t117 -223q0 -356 -492 -364v-4q158 -39 247 -115t89 -228t-118 -300 q-58 -72 -164 -118t-254 -46t-256 74t-107 212q0 74 41 139q42 65 110 65t108 -36q40 -35 40 -90t-29 -94t-68 -39t-77 15t-41 16q-35 0 -35 -47q0 -76 86 -121t177 -45t139 48t94 155q96 217 96 368q0 84 -42 126t-99 46l-195 12v31z"/>
    <glyph glyph-name="four" unicode="4" d="M1075 1458l-239 -889h202l-37 -147h-204l-105 -385h146l-9 -37h-569l10 37h140l110 385h-483l6 55l901 981h131zM174 569h391l195 629l-4 4z"/>
    <glyph glyph-name="five" unicode="5" d="M616 1153q-80 0 -178 21l-112 -369l4 -4q131 127 292 127t260 -92t99 -243t-98 -295t-251 -229t-291 -85t-228 66t-90 179q0 66 43 115t100 49t96 -31q39 -32 39 -82q-1 -50 -23 -81t-49 -40q-73 -24 -71 -65q0 -29 38 -50t111 -24q168 0 246 146q49 90 97 245t48 277 q0 190 -149 191q-80 0 -161 -70t-112 -150l-24 9q25 88 121 404t100 403q217 -88 326 -89q166 0 260 101q-23 -152 -153 -243t-290 -91z"/>
    <glyph glyph-name="six" unicode="6" d="M974 1421q-83 0 -170 -55q-146 -92 -256 -349q-40 -91 -81 -214l4 -4q47 51 121 77t137 25q145 0 226 -96t81 -236q0 -245 -152 -415t-390 -170q-193 0 -286 134t-93 368t118 463q119 229 330 369t457 140q55 0 100 -12l-6 -33q-57 8 -140 8zM791 725q0 127 -127 127 q-78 0 -155 -60t-114 -194q-84 -313 -84 -391q0 -186 162 -187q84 0 142 78t117 306t59 321z"/>
    <glyph glyph-name="seven" unicode="7" d="M449 1458v-24q195 -68 395 -68t364 68l23 -17q-133 -141 -315 -392t-302 -445q-117 -205 -116 -279q0 -30 76 -61q30 -12 54 -43t24 -87t-45 -91q-44 -35 -106 -35t-98 43q-35 43 -34 101t34 126t60 119t73 144t123 202q257 370 314 438q-236 -37 -325 -37t-146 12 q-58 12 -104 24q-46 11 -56 13l-59 -114l-29 10q129 272 170 393h25z"/>
    <glyph glyph-name="eight" unicode="8" d="M794 1421q-240 -1 -239 -209q0 -108 205 -368q150 72 230 146t79 192q0 117 -82 178q-83 61 -193 61zM117 322q0 -130 87 -216t255 -86q123 0 210 60t87 179q0 118 -168 330q-82 103 -96 126q-268 -119 -342 -259q-33 -62 -33 -134zM965 434q1 -198 -147 -324t-359 -126 q-164 0 -272 86t-107 252q0 250 393 421q-14 29 -51 91q-62 103 -64 204q0 158 125 289t283 131t250 -70q90 -71 90 -201t-86 -214t-238 -156q16 -25 58 -86q124 -179 125 -297z"/>
    <glyph glyph-name="nine" unicode="9" d="M462 557q-138 0 -216 90t-78 225q0 244 151 415q152 171 386 171q133 0 220 -74t119 -175t33 -226q0 -125 -39 -259t-125 -264t-205 -233q-120 -103 -298 -165t-387 -62h-13l8 25q284 25 396 115t194 268l113 251l2 5l-4 4q-119 -111 -257 -111zM893 1240q0 181 -156 181 q-82 0 -145 -91t-125 -310q-63 -189 -66 -303q0 -49 44 -80t90 -31q82 0 170 89t138 275t50 270z"/>
    <glyph glyph-name="colon" unicode=":" horiz-adv-x="569" d="M330 153q0 -57 -46 -113t-108 -56t-95 34q-34 34 -34 91t46 113q45 56 107 56t96 -34q34 -35 34 -91zM483 671q0 -57 -46 -113t-107 -56t-96 35q-34 35 -34 91t47 112q46 56 107 56t95 -34q34 -35 34 -91z"/>
    <glyph glyph-name="semicolon" unicode=";" horiz-adv-x="569" d="M483 671q0 -57 -46 -113t-107 -56t-96 35q-34 35 -34 91t47 112q46 56 107 56t95 -34q34 -35 34 -91zM231 -20q0 14 -7 14t-27 -4q-12 -6 -49 -6t-73 36t-36 98q0 60 44 110q43 50 109 50t102 -48t36 -111q0 -143 -116 -283t-259 -188l-6 35q88 23 185 117t97 180z"/>
    <glyph glyph-name="less" unicode="&lt;" horiz-adv-x="1228" d="M1133 1053v-181l-805 -354l805 -354v-180l-1037 456v156z"/>
    <glyph glyph-name="equal" unicode="=" horiz-adv-x="1228" d="M1133 395v-172h-1037v172h1037zM1133 813v-172h-1037v172h1037z"/>
    <glyph glyph-name="greater" unicode="&gt;" horiz-adv-x="1228" d="M96 -16v180l805 354l-805 354v181l1037 -457v-156z"/>
    <glyph glyph-name="question" unicode="?" horiz-adv-x="909" d="M424 153q0 -57 -46 -113t-108 -56t-95 34q-34 34 -34 91t46 113q45 56 107 56t96 -34q34 -35 34 -91zM844 1219q0 92 -77 139t-155 47t-149 -27q-72 -27 -84 -69q-2 -10 2 -19q16 -6 56 -10t68 -31q27 -27 27 -73t-30 -82q-30 -35 -87 -35q-56 0 -92 40t-36 101 q0 104 95 173t221 69t220 -85q95 -85 95 -245t-94 -263t-330 -220q-86 -43 -112 -74t-44 -109l-14 -59l-27 8q68 333 93 389t49 86q42 54 236 148q65 31 117 84t52 117z"/>
    <glyph glyph-name="at" unicode="@" horiz-adv-x="1638" d="M1174 482q0 -32 19 -58t54 -25q102 -1 178 141t76 300q-1 200 -155 362t-415 162t-432 -174t-171 -512q0 -248 169 -418t415 -170t425 103l19 -74q-196 -152 -518 -152t-527 212t-205 505q0 350 228 570t542 220t519 -180t204 -452q0 -188 -115 -359q-116 -170 -280 -170 q-82 1 -133 59t-51 95h-4q-20 -39 -91 -92t-155 -60q-74 -1 -140 57t-67 204q0 146 105 327q49 84 129 141q79 58 181 58t157 -107h4l18 74h156l-127 -506q-12 -49 -12 -81zM852 426q104 0 173 148t69 282t-86 135q-86 0 -180 -112q-93 -113 -93 -275q-2 -84 33 -131t84 -47 z"/>
    <glyph glyph-name="A" unicode="A" horiz-adv-x="1366" d="M745 475v582h-4l-376 -582h380zM-68 37q86 0 164 117l901 1349h43v-1466h146l-10 -37h-601l11 37h159v401h-405l-172 -266q-43 -70 -43 -80q0 -55 92 -55h76l-10 -37h-406l10 37h45z"/>
    <glyph glyph-name="B" unicode="B" horiz-adv-x="1366" d="M537 37q133 1 194 27t121 112q31 45 62 157q32 113 32 201t-51 138t-147 49h-187l-190 -684h166zM963 1442q153 0 267 -57q132 -66 132 -234t-131 -277t-316 -131v-4q123 0 219 -79t95 -208q0 -129 -79 -238q-159 -214 -575 -214h-669l10 37h150l380 1368h-161l10 37h668 zM743 758q104 0 180 61q115 94 155 314q14 72 14 141t-43 100t-138 31h-159l-181 -647h172z"/>
    <glyph glyph-name="C" unicode="C" horiz-adv-x="1366" d="M948 1438q-244 0 -434 -520q-135 -367 -135 -605q0 -137 83 -223q82 -86 236 -86t285 100t209 256l31 -22q-80 -160 -219 -265t-306 -106q-268 1 -423 185t-154 456q0 211 120 413t314 328q195 126 397 126q137 0 251 -70q113 -70 151 -70t61 80l37 -8 q-84 -309 -117 -524l-37 6q12 49 13 96q0 193 -91 323t-272 130z"/>
    <glyph glyph-name="D" unicode="D" horiz-adv-x="1593" d="M631 37q211 0 340 145q106 121 199 429q94 308 94 470t-86 243t-213 81h-213l-381 -1368h260zM979 1442q239 0 397 -146t158 -426q0 -356 -238 -613t-587 -257h-803l10 37h150l380 1368h-161l10 37h684z"/>
    <glyph glyph-name="E" unicode="E" horiz-adv-x="1366" d="M1057 1405h-307l-168 -606h182q76 -1 121 29t69 98l33 94h35q-98 -344 -137 -518h-33q20 86 20 149t-35 87q-36 24 -110 24h-156l-200 -725h305q205 0 333 123t189 297h35l-125 -457h-1202l10 37h150l380 1368h-161l10 37h1110l-74 -393h-35q10 72 11 86q0 270 -250 270z "/>
    <glyph glyph-name="F" unicode="F" horiz-adv-x="1251" d="M1057 1405h-307l-162 -606h176q76 -1 121 29t69 98l33 94h35q-98 -344 -137 -518h-33q20 86 20 149t-35 87q-36 24 -110 24h-154l-200 -725h159l-10 -37h-616l10 37h150l380 1368h-161l10 37h1110l-74 -393h-35q10 72 11 86q0 270 -250 270z"/>
    <glyph glyph-name="G" unicode="G" horiz-adv-x="1478" d="M952 1475q137 0 251 -70t152 -70t60 80l37 -8q-84 -309 -117 -524l-37 6q12 49 13 96q0 193 -91 323t-272 130q-244 0 -434 -520q-135 -367 -135 -605q0 -137 83 -223t222 -86q199 0 254 174l104 338h-145l8 37h572l-11 -37h-116l-52 -176q-47 -162 -233 -267t-367 -106 q-268 1 -423 185t-154 456q0 211 120 413t314 328q195 126 397 126z"/>
    <glyph glyph-name="H" unicode="H" horiz-adv-x="1593" d="M-94 0l10 37h150l380 1368h-161l10 37h616l-10 -37h-149l-181 -647h545l180 647h-168l11 37h620l-10 -37h-154l-381 -1368h164l-10 -37h-616l10 37h151l191 684h-543l-190 -684h161l-10 -37h-616z"/>
    <glyph glyph-name="I" unicode="I" horiz-adv-x="796" d="M-82 0l10 37h150l381 1368h-162l10 37h617l-11 -37h-149l-381 -1368h162l-10 -37h-617z"/>
    <glyph glyph-name="J" unicode="J" horiz-adv-x="1024" d="M-29 -62q0 -24 49 -51q92 -50 186 -6q19 9 46 38q28 29 42 57t26 47q11 19 25 79q15 60 22 74l342 1229h-162l10 37h617l-11 -37h-149l-320 -1141q-59 -212 -228 -326t-345 -114q-96 0 -173 68t-77 157t45 143q46 54 116 54t114 -39t44 -105t-36 -108t-97 -43l-57 12 q-29 -1 -29 -25z"/>
    <glyph glyph-name="K" unicode="K" horiz-adv-x="1478" d="M1239 1362q0 43 -80 43h-53l10 37h479l-10 -37h-59q-102 0 -250 -119l-504 -401l399 -848h146l-8 -37h-609l11 37h143l-297 647l-186 -647h161l-10 -37h-616l10 37h150l380 1368h-161l10 37h616l-10 -37h-149l-177 -633h5l479 393q180 147 180 197z"/>
    <glyph glyph-name="L" unicode="L" horiz-adv-x="1366" d="M600 37q231 0 402 137t243 389l31 -6l-158 -557h-1212l10 37h150l380 1368h-161l10 37h616l-10 -37h-149l-383 -1368h231z"/>
    <glyph glyph-name="M" unicode="M" horiz-adv-x="1820" d="M-57 37q51 0 94 37t59 94l357 1237h-152l8 37h465l80 -1036h4l676 1036h448l-8 -37h-143l-389 -1368h164l-9 -37h-624l8 37h156l374 1302l-4 4l-868 -1343h-53l-101 1368h-4l-327 -1145q-33 -105 11 -155q26 -31 71 -31h69l-8 -37h-408l9 37h45z"/>
    <glyph glyph-name="N" unicode="N" horiz-adv-x="1478" d="M-29 37q47 0 94 61q46 61 64 123l334 1184h-148l11 37h448l371 -1153h4l260 932q16 66 16 106q0 78 -108 78h-68l11 37h458l-10 -37h-70q-78 0 -120 -47t-68 -137l-348 -1221h-170l-443 1356h-4l-303 -1090q-33 -115 -32 -129q0 -100 120 -100h62l-10 -37h-445l10 37h84z "/>
    <glyph glyph-name="O" unicode="O" horiz-adv-x="1478" d="M100 510q0 182 76 362t193 310t262 212q145 81 280 81q240 1 386 -175q147 -176 147 -408t-100 -440t-292 -346q-190 -138 -426 -139q-236 0 -381 159t-145 384zM1186 1187q0 111 -64 181t-201 70q-138 0 -246 -144q-109 -144 -213 -506t-104 -504q0 -280 256 -280 q158 0 252 117t152 313q109 371 138 506q30 135 30 247z"/>
    <glyph glyph-name="P" unicode="P" horiz-adv-x="1366" d="M750 684q88 0 136 23t93 77t91 194t46 249q0 178 -198 178h-144l-203 -721h179zM930 1442q469 0 469 -316q0 -225 -164 -352t-440 -127h-232l-172 -610h150l-11 -37h-602l11 37h149l381 1368h-162l10 37h613z"/>
    <glyph glyph-name="Q" unicode="Q" horiz-adv-x="1478" d="M819 -446q-119 0 -253 44q-73 24 -119 76t-46 108q0 58 54 218q-164 47 -259 188q-96 140 -96 322t76 362t193 310t262 212q145 81 280 81q240 1 386 -175t147 -415q0 -324 -204 -597t-517 -315q-63 -173 -63 -241t34 -99q35 -31 74 -37t100 -6h115l-8 -36h-156z M1186 1187q0 111 -64 181t-201 70q-138 0 -246 -144q-109 -144 -213 -506t-104 -504q0 -280 256 -280q158 0 252 117t152 313q109 371 138 506q30 135 30 247z"/>
    <glyph glyph-name="R" unicode="R" horiz-adv-x="1478" d="M1030 1442q220 0 318 -70t98 -215q0 -197 -136 -298t-341 -107v-4q147 -32 207 -94t61 -189q0 -45 -44 -199t-44 -178q0 -63 47 -63q68 0 143 96l27 -8q-76 -125 -213 -125q-104 0 -189 47t-85 138t50 241t50 219t-50 89t-143 19h-221l-194 -704h161l-10 -37h-616l10 37 h150l380 1368h-161l10 37h735zM881 778q88 0 151 65t91 157q51 167 53 284q0 121 -138 121h-286l-177 -627h306z"/>
    <glyph glyph-name="S" unicode="S" horiz-adv-x="1251" d="M546 4q179 0 279 95t101 261q0 137 -217 233q-89 40 -181 84t-155 121t-63 171t29 178q72 201 234 280q95 47 199 47t196 -30q92 -31 152 -63q61 -32 82 -31q25 0 55 53l25 -8q-78 -227 -127 -422l-33 6q8 31 8 90q0 158 -95 263q-95 106 -251 106t-242 -75t-85 -161 q-1 -86 67 -144t163 -104t191 -97q96 -50 164 -129t68 -177q0 -231 -158 -407t-391 -177q-82 0 -164 25t-175 79t-134 54q-63 0 -90 -74l-29 10q93 269 150 492l33 -10q-20 -53 -21 -125q0 -190 118 -302t297 -112z"/>
    <glyph glyph-name="T" unicode="T" horiz-adv-x="1478" d="M705 1405q-123 0 -227 -76t-166 -175t-107 -222h-41l147 510h1346l-148 -510h-43q31 109 31 194q0 129 -74 204t-213 75h-94l-381 -1368h178l-12 -37h-649l12 37h166l381 1368h-106z"/>
    <glyph glyph-name="U" unicode="U" horiz-adv-x="1478" d="M692 4q184 0 306 94t171 262l248 871q31 104 31 125t-34 35t-87 14h-55l10 37h430l-10 -37h-98q-96 0 -131 -137l-263 -920q-59 -211 -202 -296t-326 -85t-345 67q-87 36 -143 108t-57 169q0 41 47 215l244 879h-152l11 37h622l-10 -37h-164l-291 -1012q-25 -88 -24 -157 q0 -124 79 -178t193 -54z"/>
    <glyph glyph-name="V" unicode="V" horiz-adv-x="1251" d="M1233 1335q0 70 -84 70h-57l10 37h383l-10 -37q-63 -2 -103 -33t-96 -106l-963 -1309h-41l138 1448h-146l10 37h598l-10 -37h-153l-91 -965h5l540 738q70 96 70 157z"/>
    <glyph glyph-name="W" unicode="W" horiz-adv-x="1933" d="M1845 1405h-57l10 37h383l-10 -37q-69 -2 -93 -14t-55 -56l-983 -1378h-41l107 1110l-4 4v-4l-789 -1110h-41l138 1448h-146l10 37h598l-10 -37h-153l-91 -946h5l487 676l27 270h-146l10 37h598l-10 -37h-153l-90 -944l4 -4l510 721q70 96 69 157q0 70 -84 70z"/>
    <glyph glyph-name="X" unicode="X" horiz-adv-x="1251" d="M-49 37q82 0 134 32t128 126l315 383l-170 827h-129l11 37h569l-10 -37h-148l113 -543l305 385q57 70 57 117q0 41 -102 41h-47l8 37h471l-10 -37h-37q-86 0 -152 -37t-163 -156l-322 -395l166 -780h147l-10 -37h-583l10 37h143l-108 491l-265 -325q-59 -80 -59 -106 t28 -43t68 -17h47l-10 -37h-448l10 37h43z"/>
    <glyph glyph-name="Y" unicode="Y" horiz-adv-x="1251" d="M1217 1354q0 51 -82 51h-56l11 37h374l-10 -37h-33q-51 0 -85 -28t-89 -101l-481 -666l-162 -573h164l-10 -37h-608l10 37h141l172 610l-78 758h-153l10 37h612l-10 -37h-162l72 -741l381 528q72 96 72 162z"/>
    <glyph glyph-name="Z" unicode="Z" horiz-adv-x="1366" d="M809 1405q-195 0 -306 -101q-56 -52 -89 -96t-78 -123l-45 -77h-25l99 434h1081l-1073 -1405h362q145 0 281 116q135 116 217 296h29l-117 -449h-1168l1072 1405h-240z"/>
    <glyph glyph-name="bracketleft" unicode="[" horiz-adv-x="681" d="M-84 -489l567 1982h394l-23 -74h-279l-520 -1835h277l-25 -73h-391z"/>
    <glyph glyph-name="backslash" unicode="\" horiz-adv-x="569" d="M47 1475h168l373 -1508h-168z"/>
    <glyph glyph-name="bracketright" unicode="]" horiz-adv-x="681" d="M719 1493l-567 -1982h-394l23 73h278l521 1835h-277l25 74h391z"/>
    <glyph glyph-name="asciicircum" unicode="^" horiz-adv-x="1228" d="M379 694h-182l364 748h164l365 -748h-183l-264 563z"/>
    <glyph glyph-name="underscore" unicode="_" horiz-adv-x="1024" d="M1024 -256h-1024v102h1024v-102z"/>
    <glyph glyph-name="grave" unicode="`" horiz-adv-x="569" d="M502 1036h-29l-321 264q-55 43 -56 82q0 59 80 60q49 0 94 -64z"/>
    <glyph glyph-name="a" unicode="a" d="M254 90q0 -78 70 -78q59 0 134 65t126 191q131 328 131 453q0 82 -34 119t-86 37q-51 1 -97 -53t-107 -234l-63 -187q-26 -71 -50 -179t-24 -134zM803 92q0 -43 37 -43q43 1 96 59t78 107l28 -16q-127 -223 -303 -224q-73 -1 -115 59t-42 150h-4q-37 -78 -115 -144 q-79 -66 -183 -65t-170 91t-65 233q0 91 39 197q88 242 271 355q101 62 214 62q152 0 170 -151h4l37 127h256l-202 -686q-31 -109 -31 -111z"/>
    <glyph glyph-name="b" unicode="b" d="M803 778q0 47 -29 73t-63 26q-72 0 -169 -86q-97 -85 -133 -183t-73 -246t-37 -184q0 -86 38 -126t87 -40q88 0 149 65t129 251q101 272 101 450zM381 1442q213 0 293 63l-230 -772l5 -2q127 182 299 182q141 0 215 -87t73 -224q0 -256 -178 -441t-426 -186 q-150 1 -246 103t-96 212t66 328l229 787h-123l8 37h111z"/>
    <glyph glyph-name="c" unicode="c" horiz-adv-x="909" d="M408 -25q-170 -1 -266 89t-97 237q0 256 187 434t401 178q106 0 183 -44t77 -148q0 -57 -42 -103q-41 -46 -103 -47q-62 0 -100 40q-38 41 -38 97t27 86t55 41t27 19q0 23 -86 23q-86 -1 -156 -101q-69 -100 -107 -233t-58 -241t-21 -144q0 -145 145 -146q100 0 196 80 q95 81 142 187l31 -13q-147 -291 -397 -291z"/>
    <glyph glyph-name="d" unicode="d" d="M254 90q0 -78 70 -78q59 0 134 65t126 191q131 328 131 453q0 82 -34 119t-86 37q-51 1 -97 -53t-107 -234l-63 -187q-26 -71 -50 -179t-24 -134zM926 1442q213 0 293 63l-385 -1302q-31 -109 -31 -111q0 -43 37 -43q43 1 96 59t78 107l28 -16q-127 -223 -303 -224 q-73 -1 -115 59t-42 150h-4q-37 -78 -115 -144q-79 -66 -183 -65t-170 91t-65 233q0 91 39 197q88 242 271 355q101 62 214 62q152 0 170 -151h4l187 643h-123l8 37h111z"/>
    <glyph glyph-name="e" unicode="e" horiz-adv-x="909" d="M653 788q0 99 -67 101q-68 1 -121 -101t-121 -335q35 -21 92 -21t93 34t61 99q63 163 63 223zM379 -25q-158 -1 -246 97t-88 236t83 280t213 236q130 93 255 89q98 0 176 -57t78 -154q0 -147 -119 -221t-276 -73q-72 0 -121 16q-43 -166 -43 -252q0 -160 129 -160 q92 0 176 54t139 137l27 -15q-137 -213 -383 -213z"/>
    <glyph glyph-name="f" unicode="f" horiz-adv-x="681" d="M997 1368q-1 -61 -37 -98t-92 -37t-93 33q-36 33 -36 84q0 92 90 125v6q-82 0 -141 -88t-168 -504h178l-8 -37h-178l-115 -524q-33 -144 -106 -320q-74 -176 -137 -286q-64 -110 -148 -188t-156 -77q-72 0 -128 35q-54 36 -54 98t37 96t96 34t93 -34q32 -34 32 -79 t-26 -75t-62 -34v-4q94 0 137 73t67 210q170 951 206 1075h-148l9 37h149q78 231 245 424t333 192q66 0 114 -38t47 -99z"/>
    <glyph glyph-name="g" unicode="g" horiz-adv-x="1024" d="M270 -559q-137 0 -252 61t-114 187q0 84 66 142q67 58 159 77v4q-127 45 -127 182q0 96 82 161t182 71v4q-61 33 -96 94t-35 131q0 160 111 259t256 99t239 -86q47 59 86 79t91 20t88 -35t36 -85t-28 -82t-73 -32q-46 0 -72 29q-25 29 -25 64t14 61t14 28q0 14 -16 14 t-49 -33q-33 -34 -43 -56q59 -90 59 -189q1 -145 -117 -240t-270 -96q-59 0 -97 14t-52 13q-67 0 -133 -34t-66 -80t36 -57t150 -11l320 10q236 0 235 -209q0 -207 -172 -343t-387 -136zM332 385q0 -86 71 -86q57 0 86 43q29 44 83 218t54 226t-21 78q-22 26 -53 25 q-31 0 -61 -23t-45 -59q-38 -88 -49 -139l-6 -21q-6 -20 -19 -69q-12 -49 -26 -99q-14 -51 -14 -94zM27 -315q0 -106 79 -157q80 -50 182 -50t204 38q100 38 176 116t75 173q0 51 -27 67q-47 29 -108 33q-61 3 -116 3l-295 -10q-70 0 -120 -71t-50 -142z"/>
    <glyph glyph-name="h" unicode="h" d="M412 1442q213 0 293 63l-248 -831l4 -2q149 182 223 211q74 30 146 30t123 -46q51 -47 51 -113t-78 -291l-92 -260q-31 -92 -31 -111q0 -43 37 -43q43 1 96 59t78 107l28 -16q-127 -223 -303 -224q-78 1 -124 51t-46 121q0 25 29 117l162 479q23 68 22 91q0 31 -43 30 q-69 0 -181 -125t-136 -207l-154 -532h-262l406 1405h-119l8 37h111z"/>
    <glyph glyph-name="i" unicode="i" horiz-adv-x="681" d="M389 1235q0 59 41 100t100 41q58 0 100 -41t42 -100t-41 -100t-101 -41t-100 41q-41 41 -41 100zM383 889q125 0 188 45l-223 -731q-31 -109 -31 -111q0 -43 37 -43q42 1 96 59t78 107l29 -16q-127 -223 -285 -224q-53 1 -92 17t-56 38q-16 22 -28 53t-12 66t25 117 l182 586h-127l8 37h211z"/>
    <glyph glyph-name="j" unicode="j" horiz-adv-x="681" d="M389 1235q0 59 41 100t100 41q58 0 100 -41t42 -100t-41 -100t-101 -41t-100 41q-41 41 -41 100zM383 889q125 0 188 45l-274 -899q-49 -158 -188 -341q-70 -90 -167 -152q-98 -62 -182 -62t-134 35t-50 94t35 99t88 40q123 0 123 -113q0 -35 -23 -69t-53 -38 q-30 -5 -31 -11q0 -12 31 -13q86 0 130 72t99 262l316 1014h-127l2 12l6 25h211z"/>
    <glyph glyph-name="k" unicode="k" d="M748 -25q-98 -1 -154 59t-58 256q-3 196 -27 220q-13 12 -44 12t-49 -4l-156 -518h-254l418 1405h-123l8 37h111q213 0 293 63l-287 -946h100q99 0 147 137q19 58 42 114t70 96q49 40 117 40t104 -39t36 -96t-38 -94t-86 -37q-46 0 -84 22t-37 66l10 47q0 20 -21 21 q-26 0 -52 -70t-60 -144t-84 -85v-5q104 -51 141 -96t39 -144q4 -189 35 -218q12 -12 48 -12t74 52q38 54 56 109l29 -8q-31 -106 -99 -173q-67 -67 -165 -67z"/>
    <glyph glyph-name="l" unicode="l" horiz-adv-x="681" d="M424 1442q213 0 293 63l-379 -1302q-31 -109 -31 -111q0 -43 37 -43q43 1 96 59t78 107l29 -16q-127 -223 -285 -224q-53 1 -92 17t-56 38q-16 22 -28 53t-12 66t24 117l334 1139h-127l8 37h111z"/>
    <glyph glyph-name="m" unicode="m" horiz-adv-x="1705" d="M352 889q125 0 189 45l-84 -260l4 -2q9 9 50 60t80 86q38 34 51 41t37 21q60 34 138 33q186 0 187 -168q0 -47 -7 -71l4 -2q4 4 30 35t33 37t32 34q25 27 38 37q14 11 38 31t70 39q65 28 145 28q79 0 131 -46q52 -47 53 -113q0 -66 -78 -291l-92 -260q-31 -92 -31 -111 q0 -43 37 -43q43 1 96 59t78 107l29 -16q-127 -223 -303 -224q-78 1 -124 51t-46 121q0 25 28 117l150 457q23 68 22 106q0 37 -41 37q-70 0 -184 -112t-145 -220l-158 -532h-258l211 723q20 69 20 105t-43 36q-69 0 -181 -125t-136 -207l-154 -532h-262l246 852h-119l8 37 h211z"/>
    <glyph glyph-name="n" unicode="n" d="M352 889q125 0 189 45l-84 -260l4 -2q149 182 223 211q74 30 146 30t123 -46q51 -47 51 -113t-78 -291l-92 -260q-31 -92 -31 -111q0 -43 37 -43q43 1 96 59t78 107l28 -16q-127 -223 -303 -224q-78 1 -124 51t-46 121q0 25 29 117l162 479q23 68 22 91q0 31 -43 30 q-69 0 -181 -125t-136 -207l-154 -532h-262l246 852h-119l8 37h211z"/>
    <glyph glyph-name="o" unicode="o" horiz-adv-x="1024" d="M713 778q0 111 -108 111q-94 0 -136 -61q-70 -97 -166 -441q-49 -178 -49 -252q0 -135 121 -135q68 0 107 35q38 35 53 73t41 102t82 288t55 280zM922 539q0 -207 -157 -385t-388 -179q-135 1 -233 95t-99 260q0 166 85 305t205 209t243 69q160 0 252 -106t92 -268z"/>
    <glyph glyph-name="p" unicode="p" d="M815 787q0 77 -73 77q-72 0 -158 -92t-115 -188l-63 -219q-31 -115 -31 -163t38 -113t94 -65t99 70q42 70 92 207t83 273q34 136 34 213zM309 889q166 0 232 43q-16 -84 -31 -199h4q47 76 125 128t164 52q119 0 176 -88t57 -218t-54 -272t-169 -251t-258 -109 q-164 0 -205 189h-4l-199 -670h136l-11 -37h-499l8 37h104l398 1358h-127l12 37h141z"/>
    <glyph glyph-name="q" unicode="q" d="M293 -25q-117 1 -183 91t-65 233q0 91 39 197q88 242 271 355q101 62 214 62q152 0 170 -151h4l37 127h264l-409 -1395h135l-10 -37h-502l10 37h105l202 658h-4q-43 -57 -70 -89q-28 -31 -83 -59t-125 -29zM324 12h12q84 0 160 85q121 135 192 435q27 115 27 193t-34 115 t-86 37q-51 1 -97 -53t-107 -234l-63 -187q-24 -74 -50 -180t-24 -133q2 -78 70 -78z"/>
    <glyph glyph-name="r" unicode="r" horiz-adv-x="909" d="M627 741q0 53 45 105q0 6 -8 6q-33 0 -121 -104t-101 -146l-174 -602h-262l254 852h-127l8 37h211q125 0 189 45l-76 -227h4q141 207 281 206q159 0 159 -143q0 -63 -41 -107q-41 -45 -105 -45t-100 35t-36 88z"/>
    <glyph glyph-name="s" unicode="s" horiz-adv-x="909" d="M731 270q1 -92 -65 -162q-123 -132 -347 -133q-111 -1 -211 63t-102 163q0 63 33 103t89 40t90 -37t34 -92t-32 -84t-72 -31t-39 -16q0 -10 28 -30q29 -18 82 -36t105 -18q211 0 211 170q1 57 -55 102t-122 74t-120 89t-56 145q0 143 112 238t263 95q96 0 184 -45 t88 -135q-1 -61 -31 -100t-84 -39t-86 35t-32 86q0 96 88 112q23 4 23 15q-1 16 -59 31q-58 16 -112 16t-118 -40q-64 -41 -64 -105t39 -103t94 -66t111 -59t94 -94q39 -60 39 -152z"/>
    <glyph glyph-name="t" unicode="t" horiz-adv-x="681" d="M299 92q0 -43 37 -43q43 1 97 61t85 119l12 29l31 -14l-29 -51q-44 -84 -120 -151t-144 -67q-118 0 -158 50t-42 79q-2 28 -2 54t24 108l164 586h-174l10 37h174l72 246q28 6 94 24q66 17 80 25t44 20t73 43l-107 -358h187l-11 -37h-186l-180 -649q-31 -109 -31 -111z "/>
    <glyph glyph-name="u" unicode="u" d="M344 889q125 0 188 45l-221 -729q-31 -96 -30 -129q0 -39 45 -39q33 0 90 51q56 51 118 135t87 162l161 504h265l-213 -686q-31 -109 -31 -111q0 -43 37 -43q43 1 96 59t78 107l28 -16q-127 -223 -303 -224q-80 -1 -125 49t-45 104t17 112h-4q-129 -195 -246 -242 q-57 -23 -128 -23t-116 44t-45 118q0 31 27 129l178 586h-127l8 37h211z"/>
    <glyph glyph-name="v" unicode="v" horiz-adv-x="1024" d="M358 889q117 0 201 45l-219 -741q-27 -91 -27 -107q-1 -16 11 -26t30 -11q82 0 178 69t168 162t121 186t49 136t-14 52q-14 8 -18 10t-39 14t-66 46t-31 85t34 88t92 37t94 -40t34 -114q0 -166 -106 -354t-276 -320t-328 -131q-86 0 -132 44t-46 116q-1 41 24 131 l176 586h-129l8 37h211z"/>
    <glyph glyph-name="w" unicode="w" horiz-adv-x="1593" d="M367 889q125 0 188 45l-221 -729q-31 -95 -31 -111t14 -30t37 -15q90 0 186 111q95 111 132 225l155 504h256l-204 -696q-31 -98 -31 -113q0 -43 55 -43q88 0 216 98q128 99 223 237t96 238q0 36 -14 44t-19 10q-4 2 -39 14t-66 46q-30 34 -30 85t34 88t92 37t93 -40 t35 -114q0 -166 -106 -354t-276 -320q-169 -132 -329 -131q-186 0 -186 160q0 47 12 105h-4q-111 -158 -192 -211t-207 -54q-78 0 -122 45q-78 80 -18 246l178 586h-127l9 37h211z"/>
    <glyph glyph-name="x" unicode="x" d="M496 913q233 0 233 -200q0 -12 -4 -54h4q137 254 311 254q72 0 115 -45t43 -108q0 -64 -33 -102t-93 -38t-90 34q-30 32 -30 76t28 73t56 43t29 22q0 20 -47 21q-84 0 -163 -94q-127 -151 -207 -471q-30 -121 -30 -189q0 -123 80 -123q62 0 124 43t106 95l65 79l25 -16 l-29 -35q-78 -96 -159 -149q-80 -53 -206 -53t-180 71q-53 72 -59 189h-4q-33 -94 -105 -178t-167 -83q-61 0 -99 41q-37 40 -37 96t31 95t80 39t80 -28t31 -73q0 -75 -53 -104q-17 -10 -17 -14q0 -14 16 -15q88 0 171 142t127 300q44 159 44 248q0 150 -110 150 q-85 0 -211 -129l-78 -76l-25 15l50 51q98 102 187 151t200 49z"/>
    <glyph glyph-name="y" unicode="y" d="M239 742q-15 24 -47 24t-57 -32q-39 -51 -58 -90l-18 -36l-28 10q147 295 325 295q135 0 148 -143l51 -520h4l293 498q98 166 211 165q59 -1 95 -35t36 -94t-37 -100q-37 -41 -89 -41t-86 30t-34 77t25 77q-31 0 -107 -122l-563 -953q-84 -145 -166 -220t-213 -75 q-66 0 -112 38t-45 103q1 66 37 110t92 44t92 -30q37 -30 37 -81q-1 -51 -21 -77t-40 -36q-20 -9 -21 -13q0 -20 24 -21q72 0 143 54t119 143l117 209l-76 704q-6 55 -11 84q-5 30 -20 54z"/>
    <glyph glyph-name="z" unicode="z" horiz-adv-x="1024" d="M36 0q-20 0 -34 12t-14 29q-1 45 69 106l617 547h-4q-145 -61 -361 -61q-111 0 -174 29l-45 -84l-29 12q105 206 156 311q209 -72 432 -72l164 13q0 72 39 71q35 0 35 -45t-107 -137l-577 -500l4 -4q92 31 176 31t218 -68t165 -68t51 30q21 29 21 45t-11 16l-28 -4 q-43 0 -71 28q-28 27 -28 71t27 71t70 27q100 0 100 -112t-97 -209t-245 -97q-81 0 -233 55t-220 55q-27 0 -26 -18l10 -33q0 -19 -15 -33t-35 -14z"/>
    <glyph glyph-name="braceleft" unicode="{" horiz-adv-x="681" d="M279 336q1 -61 -91 -314t-92 -326t26 -102t116 -47l-9 -36q-194 0 -235 74q-20 37 -20 113t90 336q92 260 92 317q0 58 -18 93t-81 58q104 31 154 88q49 57 86 174l129 407q62 195 160 259t278 63l-8 -37q-136 -27 -200 -87t-103 -185l-123 -387q-41 -133 -94 -199 t-164 -94l-2 -4q109 -59 109 -164z"/>
    <glyph glyph-name="bar" unicode="|" horiz-adv-x="454" d="M182 -512v2048h172v-2048h-172z"/>
    <glyph glyph-name="braceright" unicode="}" horiz-adv-x="681" d="M301 667q0 67 91 317t91 324t-26 106q-27 32 -115 42l8 37q136 0 196 -35t60 -137t-91 -348q-91 -247 -91 -313t18 -101t80 -57q-104 -31 -153 -88t-86 -174l-129 -408q-61 -195 -160 -258t-279 -63l9 36q136 19 200 81t103 192l123 387q41 133 94 199t164 94l2 4 q-63 20 -86 58t-23 105z"/>
    <glyph glyph-name="asciitilde" unicode="~" horiz-adv-x="1228" d="M404 678q66 0 200 -74q132 -74 236 -74t174 148l73 -141q-45 -59 -69 -87t-75 -60q-52 -32 -119 -32q-68 0 -200 74t-236 74t-173 -148l-74 138q43 59 68 89q25 29 77 61t118 32z"/>
    <glyph glyph-name="uni00A0" unicode=" " horiz-adv-x="569"/>
    <glyph glyph-name="exclamdown" unicode="¡" horiz-adv-x="681" d="M266 732q0 56 46 112t108 57q62 0 95 -35q34 -35 34 -91t-46 -112q-45 -57 -107 -57t-96 35t-34 91zM330 498l24 -6q-94 -408 -98 -623q0 -127 49 -201q-160 -86 -260 -258q-41 195 -119 273q106 78 192 267t142 350t70 198z"/>
    <glyph glyph-name="cent" unicode="¢" d="M391 172q0 -98 51 -127l228 819q-111 -53 -195 -324q-84 -270 -84 -368zM145 302q0 128 52 242q92 205 306 311q93 46 181 56l49 176h41l-49 -174q113 0 191 -44t77 -148q0 -57 -42 -103t-103 -47q-61 0 -99 39t-38 112q-1 80 81 110q26 10 27 22q0 23 -84 23h-20 l-236 -846q18 -10 58 -11q100 0 195 77t142 182l31 -13q-143 -283 -397 -282q-16 0 -41 4l-47 -166h-41l47 168q-135 20 -208 102t-73 210z"/>
    <glyph glyph-name="sterling" unicode="£" d="M142 227q-52 1 -90 -25t-38 -81q0 -84 80 -84q111 0 174 147q-74 43 -126 43zM850 1458q154 0 232 -82t79 -167q0 -85 -38 -135q-37 -50 -103 -50t-100 36t-35 90q0 54 35 93t92 39t88 -20q-8 66 -66 106t-118 41q-151 0 -233 -163q-60 -116 -108 -323q-8 -40 -20 -106 t-16 -84h340l-9 -37h-342q-23 -182 -137 -397q213 -57 321 -57t167 45t98 137h27q-74 -250 -166 -345t-211 -95q-61 0 -129 32t-95 54q-27 20 -100 84q-94 -154 -207 -154q-47 0 -83 31t-36 78q0 109 73 163t181 54l86 -13q4 117 -14 383h-180l10 37h168l-2 96 q0 269 143 449t408 180z"/>
    <glyph glyph-name="currency" unicode="¤" d="M266 721q0 -139 98 -237t238 -99q139 0 238 98q98 97 98 237t-98 238t-238 98t-238 -98t-98 -237zM1110 719q0 -172 -104 -303l110 -111l-106 -106l-111 112q-129 -98 -298 -98t-300 102l-121 -120l-106 108l119 119q-98 135 -99 299q0 164 96 297l-116 117l106 106 l117 -117q133 104 301 104t303 -98l111 111l106 -106l-110 -111q102 -133 102 -305z"/>
    <glyph glyph-name="yen" unicode="¥" d="M1049 1405h-56l11 37h378l-10 -37h-33q-51 0 -86 -28t-90 -99l-489 -643h299l-12 -49h-295l-50 -172h308l-13 -49h-307l-94 -328h176l-10 -37h-608l10 37h162l94 328h-279l13 49h278l49 172h-291l13 49h297l-84 770h-170l10 37h612l-10 -37h-174l59 -731l400 524 q72 96 71 156q0 51 -79 51z"/>
    <glyph glyph-name="brokenbar" unicode="¦" horiz-adv-x="454" d="M182 666v716h172v-716h-172zM182 -358v716h172v-716h-172z"/>
    <glyph glyph-name="section" unicode="§" d="M236 637q0 -51 66 -119t151 -117q240 -140 305 -233l24 22q27 23 32 28t26 24t54 64q34 44 34 104q0 59 -82 126q-82 68 -223 158t-222 166q-47 -36 -73 -58t-60 -68q-32 -46 -32 -97zM754 1438q-92 0 -180 -62q-87 -62 -87 -162q0 -101 200 -227q83 -51 165 -104 t140 -124t58 -163t-42 -184q-44 -92 -94 -144t-138 -129q45 -74 45 -162q0 -227 -143 -373t-375 -147q-135 0 -246 73t-110 214q0 74 39 129t102 55q64 0 106 -36t42 -93t-35 -93t-99 -36l-61 13q-20 0 -21 -25q0 -60 85 -112t219 -52t235 80q102 80 103 215q0 84 -60 155 t-143 121q-84 50 -168 101t-144 124q-59 73 -59 161q0 131 85 243t212 193q-20 25 -33 77q-12 52 -12 91q0 174 130 297t284 123q154 -1 247 -61q92 -60 93 -191q0 -55 -40 -99t-100 -43q-60 0 -98 35q-39 35 -39 88t31 88t82 35l43 -4q23 0 22 14q0 55 -74 78 q-75 23 -167 23z"/>
    <glyph glyph-name="dieresis" unicode="¨" horiz-adv-x="569" d="M526 1235q0 55 40 95t96 40t95 -40q40 -40 40 -95t-40 -95t-95 -40t-96 40q-40 40 -40 95zM170 1235q0 55 40 95t95 40t95 -40t40 -95t-40 -95t-95 -40t-95 40t-40 95z"/>
    <glyph glyph-name="copyright" unicode="©" horiz-adv-x="1638" d="M106 721q0 311 222 532t532 221t532 -220q222 -222 222 -533t-221 -533t-533 -221q-312 -1 -532 221q-222 222 -222 533zM279 721q-1 -254 167 -424t414 -170t414 170t168 424t-168 424t-414 170t-414 -170t-167 -424zM901 311q-207 0 -330 109t-122 317q0 148 103 273 q52 63 146 102t212 39t188 -27q72 -27 78 -37t6 -20v-149h-49q-39 184 -218 184q-125 0 -191 -96t-67 -258q0 -387 263 -388q177 1 249 189h48l-33 -154q0 -4 -2 -8q-2 -5 -4 -9t-14 -10q-26 -13 -107 -35q-80 -22 -156 -22z"/>
    <glyph glyph-name="ordfeminine" unicode="ª" horiz-adv-x="739" d="M600 1348q0 34 -20 60t-56 26t-72 -62q-34 -62 -85 -208q-51 -148 -51 -202t45 -55q46 0 92 48t79 128q68 176 68 265zM657 883q-79 0 -107 35t-28 94h-4q-72 -129 -174 -129t-139 53t-37 149q0 131 99 252t233 121q102 0 125 -84h4l22 70h176l-131 -410q-26 -80 -26 -97 t32 -17t79 61q22 26 30 37l16 -10l-26 -32q-7 -10 -21 -24l-25 -25q-11 -11 -19 -15t-18 -12q-27 -17 -61 -17z"/>
    <glyph glyph-name="guillemotleft" unicode="«" horiz-adv-x="1024" d="M623 180l-181 350l308 351h122l-311 -351l172 -350h-110zM352 180l-180 350l307 351h123l-311 -351l172 -350h-111z"/>
    <glyph glyph-name="logicalnot" unicode="¬" horiz-adv-x="1228" d="M961 225v416h-865v172h1037v-588h-172z"/>
    <glyph glyph-name="uni00AD" unicode="­" horiz-adv-x="1024" d="M152 444l53 172h622l-53 -172h-622z"/>
    <glyph glyph-name="registered" unicode="®" horiz-adv-x="1638" d="M106 721q0 311 222 532t532 221t532 -220q222 -222 222 -533t-221 -533t-533 -221q-312 -1 -532 221q-222 222 -222 533zM279 721q-1 -254 167 -424t414 -170t414 170t168 424t-168 424t-414 170t-414 -170t-167 -424zM780 1077v-348h68q131 0 131 186q0 162 -129 162 h-70zM512 334v37q68 4 82 19t14 75v532q0 59 -15 73t-81 20v36h332q168 0 244 -48t75 -154q0 -72 -49 -132t-125 -85l109 -175q98 -162 157 -174v-24h-172q-31 0 -71 67l-160 279h-72v-215q0 -61 14 -75t78 -19v-37h-360z"/>
    <glyph glyph-name="macron" unicode="¯" horiz-adv-x="569" d="M215 1311h512l-29 -123h-512z"/>
    <glyph glyph-name="degree" unicode="°" horiz-adv-x="819" d="M229 1165q0 123 85 208t208 85t208 -85t85 -208t-85 -208t-208 -85t-208 85t-85 208zM328 1165q0 -84 55 -139t139 -55t140 55q55 55 55 139q0 83 -55 139q-56 56 -140 56t-139 -56t-55 -139z"/>
    <glyph glyph-name="plusminus" unicode="±" horiz-adv-x="1228" d="M96 0v172h1037v-172h-1037zM528 731v305h172v-305h433v-172h-433v-309h-172v309h-432v172h432z"/>
    <glyph glyph-name="twosuperior" unicode="²" horiz-adv-x="739" d="M606 1313q0 121 -125 121q-66 0 -129 -37t-63 -76q0 -34 57 -46t57 -67q0 -36 -20 -64t-61 -28q-94 0 -94 108t86 172q87 62 202 62t195 -50t80 -150t-69 -180q-69 -79 -156 -122q-274 -136 -353 -223h387q41 0 76 78h33l-129 -225h-494q44 115 228 270q71 59 139 124 q153 146 153 333z"/>
    <glyph glyph-name="threesuperior" unicode="³" horiz-adv-x="739" d="M635 1354q1 80 -115 80q-60 0 -104 -24q-43 -24 -43 -42q1 -6 23 -10t46 -22t23 -52q0 -70 -78 -72q-43 0 -69 24t-25 62q0 72 76 116t175 44t175 -47t76 -143q0 -201 -320 -207v-4q103 -23 163 -68t60 -133q0 -129 -106 -206t-225 -77t-191 44t-72 128q0 45 30 86t73 41 t69 -24t27 -57q0 -35 -18 -57q-29 -36 -94 -12q-24 9 -27 9q-23 0 -23 -37q-1 -36 57 -60t134 -24t135 119t59 217q0 51 -26 75q-27 24 -66 26l-127 8v20h113q115 0 165 79t50 200z"/>
    <glyph glyph-name="acute" unicode="´" horiz-adv-x="569" d="M408 1036h-29l231 342q45 63 95 64q80 0 79 -60q0 -39 -55 -82z"/>
    <glyph glyph-name="mu" unicode="µ" d="M344 889q125 0 188 45l-221 -729q-31 -96 -30 -129q0 -39 45 -39q33 0 90 51q56 51 118 135t87 162l161 504h265l-213 -686q-31 -109 -31 -111q0 -43 37 -43q43 1 96 59t78 107l28 -16q-127 -223 -303 -224q-80 -1 -125 49t-45 104t17 112h-4q-51 -76 -90 -123t-108 -92 t-144 -50l-47 -213q-56 -249 -139 -288q-34 -16 -85 -16t-82 34q-31 35 -30 78q-1 78 77 270t99 260l219 752h-127l8 37h211z"/>
    <glyph glyph-name="paragraph" unicode="¶" horiz-adv-x="1269" d="M395 901q0 -102 33 -167t80 -83l194 717q-145 -35 -226 -176t-81 -291zM223 889q-1 249 145 401t423 152h579l-10 -37h-164l-514 -1878h156l-11 -37h-319l530 1915h-161l-531 -1915h-321l12 37h164l293 1073q-127 0 -199 91t-72 198z"/>
    <glyph glyph-name="periodcentered" unicode="·" horiz-adv-x="569" d="M152 592q0 59 45 103t102 44t102 -44t45 -103q0 -60 -45 -104t-102 -44t-102 44t-45 104z"/>
    <glyph glyph-name="cedilla" unicode="¸" horiz-adv-x="569" d="M244 -158q60 0 110 -32t49 -103q-1 -69 -71 -109t-160 -40t-213 43l14 37q113 -31 149 -31t84 27q46 28 46 74t-32 66t-62 19q-30 0 -78 -14l-21 16l179 205h45l-158 -174l4 -4q55 20 115 20z"/>
    <glyph glyph-name="onesuperior" unicode="¹" horiz-adv-x="739" d="M180 586l6 24h93l217 703q-106 -53 -254 -103l6 33q215 74 448 215h31l-258 -848h96l-6 -24h-379z"/>
    <glyph glyph-name="ordmasculine" unicode="º" horiz-adv-x="665" d="M555 1434q-37 0 -66 -29q-47 -47 -79 -158q-70 -182 -70 -261t78 -79q43 0 78 39q35 40 43 74t46 175t39 190t-69 49zM772 1233q0 -133 -105 -242t-233 -109t-185 66q-56 66 -56 180t108 223q109 107 229 107t181 -62t61 -163z"/>
    <glyph glyph-name="guillemotright" unicode="»" horiz-adv-x="1024" d="M389 881l180 -351l-307 -350h-123l312 350l-172 351h110zM659 881l181 -351l-308 -350h-122l311 350l-172 351h110z"/>
    <glyph glyph-name="onequarter" unicode="¼" horiz-adv-x="1708" d="M121 586l6 24h92l217 703q-106 -53 -254 -103l6 33q215 74 449 215h31l-258 -848h96l-6 -24h-379zM330 -33l948 1508h92l-948 -1508h-92zM1587 872l-155 -530h131l-23 -86h-133l-68 -231h95l-7 -25h-378l8 25h90l76 231h-318l10 53l560 563h112zM1251 342l129 391l-4 4 l-401 -395h276z"/>
    <glyph glyph-name="onehalf" unicode="½" horiz-adv-x="1708" d="M1403 727q0 121 -125 121q-66 0 -129 -37t-64 -76q0 -29 58 -46q57 -14 57 -70q0 -33 -20 -61t-62 -28q-94 0 -94 108t87 172q87 62 202 62t195 -50t79 -150t-69 -179t-155 -122q-275 -136 -353 -224h387q41 0 76 78h32l-129 -225h-493q44 115 228 270q71 59 139 124 q154 148 153 333zM121 586l6 24h92l217 703q-106 -53 -254 -103l6 33q215 74 449 215h31l-258 -848h96l-6 -24h-379zM289 -33l948 1508h92l-948 -1508h-92z"/>
    <glyph glyph-name="threequarters" unicode="¾" horiz-adv-x="1708" d="M1251 342l129 391l-4 4l-401 -395h276zM350 -33l948 1508h93l-949 -1508h-92zM1587 872l-155 -530h131l-23 -86h-133l-68 -231h95l-7 -25h-378l8 25h90l76 231h-318l10 53l560 563h112zM635 1354q1 80 -115 80q-60 0 -104 -24q-43 -24 -43 -42q1 -6 23 -10t46 -22t23 -52 q0 -70 -78 -72q-43 0 -69 24t-25 62q0 72 76 116t175 44t175 -47t76 -143q0 -201 -320 -207v-4q103 -23 163 -68t60 -133q0 -129 -106 -206t-225 -77t-191 44t-72 128q0 45 30 86t73 41t69 -24t27 -57q0 -35 -18 -57q-29 -36 -94 -12q-24 9 -27 9q-23 0 -23 -37 q-1 -36 57 -60t134 -24t135 119t59 217q0 51 -26 75q-27 24 -66 26l-127 8v20h113q115 0 165 79t50 200z"/>
    <glyph glyph-name="questiondown" unicode="¿" horiz-adv-x="909" d="M424 732q0 56 46 112t108 57q62 0 95 -35q34 -35 34 -91q-1 -56 -47 -112q-46 -57 -107 -57t-95 35t-34 91zM4 -334q0 -92 77 -139t155 -47t149 26q72 26 84 70q2 10 -2 18q-16 6 -56 10t-68 32q-28 26 -28 73t31 82t87 35t92 -40t36 -101q0 -104 -95 -173t-221 -69 t-220 85q-95 84 -95 244t94 264t330 220q86 43 112 74t44 108l14 60l27 -9q-68 -332 -93 -388q-25 -57 -49 -87q-42 -54 -236 -147q-65 -31 -117 -84t-52 -117z"/>
    <glyph glyph-name="Agrave" unicode="À" horiz-adv-x="1366" d="M639 1860q0 59 80 59q49 0 94 -64l231 -342h-28l-322 265q-55 43 -55 82zM745 475v582h-4l-376 -582h380zM-68 37q86 0 164 117l901 1349h43v-1466h146l-10 -37h-601l11 37h159v401h-405l-172 -266q-43 -70 -43 -80q0 -55 92 -55h76l-10 -37h-406l10 37h45z"/>
    <glyph glyph-name="Aacute" unicode="Á" horiz-adv-x="1366" d="M1348 1860q0 -39 -56 -82l-321 -265h-29l232 342q45 63 94 64q80 0 80 -59zM745 475v582h-4l-376 -582h380zM-68 37q86 0 164 117l901 1349h43v-1466h146l-10 -37h-601l11 37h159v401h-405l-172 -266q-43 -70 -43 -80q0 -55 92 -55h76l-10 -37h-406l10 37h45z"/>
    <glyph glyph-name="Acircumflex" unicode="Â" horiz-adv-x="1366" d="M682 1513l303 406h139l123 -406h-22l-195 259l-323 -259h-25zM745 475v582h-4l-376 -582h380zM-68 37q86 0 164 117l901 1349h43v-1466h146l-10 -37h-601l11 37h159v401h-405l-172 -266q-43 -70 -43 -80q0 -55 92 -55h76l-10 -37h-406l10 37h45z"/>
    <glyph glyph-name="Atilde" unicode="Ã" horiz-adv-x="1366" d="M1128 1597q-44 0 -154 43t-160 43t-74 -17t-48 -69h-30q25 92 77 169q53 77 129 77q45 0 155 -43t160 -43q49 -1 73 17t49 69h30q-25 -92 -78 -169t-129 -77zM745 475v582h-4l-376 -582h380zM-68 37q86 0 164 117l901 1349h43v-1466h146l-10 -37h-601l11 37h159v401h-405 l-172 -266q-43 -70 -43 -80q0 -55 92 -55h76l-10 -37h-406l10 37h45z"/>
    <glyph glyph-name="Adieresis" unicode="Ä" horiz-adv-x="1366" d="M1069 1712q0 55 40 95t95 40t95 -40t40 -95t-40 -95t-95 -40t-95 40t-40 95zM713 1712q0 55 40 95t95 40t95 -40t40 -95t-40 -95t-95 -40t-95 40t-40 95zM745 475v582h-4l-376 -582h380zM-68 37q86 0 164 117l901 1349h43v-1466h146l-10 -37h-601l11 37h159v401h-405 l-172 -266q-43 -70 -43 -80q0 -55 92 -55h76l-10 -37h-406l10 37h45z"/>
    <glyph glyph-name="Aring" unicode="Å" horiz-adv-x="1366" d="M1028 1618q57 0 96 39t39 96t-39 96t-96 39t-96 -39t-39 -96t39 -96t96 -39zM1249 1753q1 -90 -65 -156q-66 -65 -156 -65t-156 66t-65 155q0 90 65 156q66 65 156 65t156 -65q65 -66 65 -156zM745 475v582h-4l-376 -582h380zM-68 37q86 0 164 117l901 1349h43v-1466h146 l-10 -37h-601l11 37h159v401h-405l-172 -266q-43 -70 -43 -80q0 -55 92 -55h76l-10 -37h-406l10 37h45z"/>
    <glyph glyph-name="AE" unicode="Æ" horiz-adv-x="1933" d="M793 475l258 893h-4l-680 -893h426zM1874 1135q0 270 -250 270h-264l-170 -606h141q76 -1 121 29t70 98l32 94h35q-98 -344 -137 -518h-33q46 196 -15 236q-36 24 -110 24h-114l-203 -725h266q205 0 333 123t189 297h35l-125 -457h-1202l10 37h187l112 401h-442 l-170 -231q-59 -84 -59 -111q0 -59 110 -59h43l-10 -37h-406l11 37h32q98 4 166 94l977 1274h-182l10 37h1110l-74 -393h-34q10 72 10 86z"/>
    <glyph glyph-name="Ccedilla" unicode="Ç" horiz-adv-x="1366" d="M948 1438q-244 0 -434 -520q-135 -367 -135 -605q0 -137 83 -223q82 -86 236 -86t285 100t209 256l31 -22q-80 -160 -219 -265t-306 -106q-29 0 -43 4l-131 -145l4 -4q55 20 115 20t110 -32t50 -103q0 -69 -71 -109t-162 -40t-212 43l15 37q113 -31 149 -31q36 -1 83 27 q46 28 46 74q0 85 -104 85q-20 0 -68 -14l-20 16l155 178q-231 29 -362 208t-131 409t120 431q120 202 314 328q195 126 397 126q137 0 251 -70q113 -70 151 -70t61 80l37 -8q-84 -309 -117 -524l-37 6q12 49 13 96q0 193 -91 323t-272 130z"/>
    <glyph glyph-name="Egrave" unicode="È" horiz-adv-x="1366" d="M598 1860q0 59 80 59q49 0 94 -64l232 -342h-29l-322 265q-55 43 -55 82zM1057 1405h-307l-168 -606h182q76 -1 121 29t69 98l33 94h35q-98 -344 -137 -518h-33q20 86 20 149t-35 87q-36 24 -110 24h-156l-200 -725h305q205 0 333 123t189 297h35l-125 -457h-1202l10 37 h150l380 1368h-161l10 37h1110l-74 -393h-35q10 72 11 86q0 270 -250 270z"/>
    <glyph glyph-name="Eacute" unicode="É" horiz-adv-x="1366" d="M1286 1860q0 -39 -55 -82l-322 -265h-28l231 342q45 63 94 64q80 0 80 -59zM1057 1405h-307l-168 -606h182q76 -1 121 29t69 98l33 94h35q-98 -344 -137 -518h-33q20 86 20 149t-35 87q-36 24 -110 24h-156l-200 -725h305q205 0 333 123t189 297h35l-125 -457h-1202 l10 37h150l380 1368h-161l10 37h1110l-74 -393h-35q10 72 11 86q0 270 -250 270z"/>
    <glyph glyph-name="Ecircumflex" unicode="Ê" horiz-adv-x="1366" d="M641 1513l303 406h139l123 -406h-22l-195 259l-323 -259h-25zM1057 1405h-307l-168 -606h182q76 -1 121 29t69 98l33 94h35q-98 -344 -137 -518h-33q20 86 20 149t-35 87q-36 24 -110 24h-156l-200 -725h305q205 0 333 123t189 297h35l-125 -457h-1202l10 37h150 l380 1368h-161l10 37h1110l-74 -393h-35q10 72 11 86q0 270 -250 270z"/>
    <glyph glyph-name="Edieresis" unicode="Ë" horiz-adv-x="1366" d="M1028 1712q0 55 40 95t95 40t95 -40t40 -95t-40 -95t-95 -40t-95 40t-40 95zM672 1712q0 55 40 95t95 40t95 -40t40 -95t-40 -95t-95 -40t-95 40t-40 95zM1057 1405h-307l-168 -606h182q76 -1 121 29t69 98l33 94h35q-98 -344 -137 -518h-33q20 86 20 149t-35 87 q-36 24 -110 24h-156l-200 -725h305q205 0 333 123t189 297h35l-125 -457h-1202l10 37h150l380 1368h-161l10 37h1110l-74 -393h-35q10 72 11 86q0 270 -250 270z"/>
    <glyph glyph-name="Igrave" unicode="Ì" horiz-adv-x="796" d="M393 1919q49 0 94 -64l232 -342h-29l-321 265q-55 43 -56 82q0 59 80 59zM-82 0l10 37h150l381 1368h-162l10 37h617l-11 -37h-149l-381 -1368h162l-10 -37h-617z"/>
    <glyph glyph-name="Iacute" unicode="Í" horiz-adv-x="796" d="M625 1513h-29l231 342q45 63 95 64q80 0 79 -59q0 -39 -55 -82zM-82 0l10 37h150l381 1368h-162l10 37h617l-11 -37h-149l-381 -1368h162l-10 -37h-617z"/>
    <glyph glyph-name="Icircumflex" unicode="Î" horiz-adv-x="796" d="M356 1513l303 406h140l123 -406h-23l-194 259l-324 -259h-25zM-82 0l10 37h150l381 1368h-162l10 37h617l-11 -37h-149l-381 -1368h162l-10 -37h-617z"/>
    <glyph glyph-name="Idieresis" unicode="Ï" horiz-adv-x="796" d="M743 1712q0 55 40 95q39 40 95 40t96 -40t40 -95t-40 -95t-95 -40t-96 40q-40 40 -40 95zM387 1712q0 55 40 95t95 40t95 -40t40 -95t-40 -95t-95 -40t-95 40t-40 95zM-82 0l10 37h150l381 1368h-162l10 37h617l-11 -37h-149l-381 -1368h162l-10 -37h-617z"/>
    <glyph glyph-name="Eth" unicode="Ð" horiz-adv-x="1593" d="M696 37q123 1 235 111q193 191 292 614q41 176 41 334t-86 234q-86 75 -213 75h-213l-156 -567h330l-17 -62h-336l-202 -739h325zM963 1442q251 0 411 -146t160 -426q0 -231 -106 -430q-106 -200 -298 -320q-190 -120 -421 -120h-803l10 37h150l202 739h-147l16 62h154 l155 567h-161l10 37h668z"/>
    <glyph glyph-name="Ntilde" unicode="Ñ" horiz-adv-x="1478" d="M1143 1597q-45 0 -155 43t-160 43t-74 -17t-47 -69h-31q25 92 78 169t129 77q45 0 155 -43t159 -43q49 -1 73 17t49 69h31q-25 -92 -78 -169t-129 -77zM-29 37q47 0 94 61q46 61 64 123l334 1184h-148l11 37h448l371 -1153h4l260 932q16 66 16 106q0 78 -108 78h-68 l11 37h458l-10 -37h-70q-78 0 -120 -47t-68 -137l-348 -1221h-170l-443 1356h-4l-303 -1090q-33 -115 -32 -129q0 -100 120 -100h62l-10 -37h-445l10 37h84z"/>
    <glyph glyph-name="Ograve" unicode="Ò" horiz-adv-x="1478" d="M774 1919q49 0 94 -64l232 -342h-29l-321 265q-55 43 -56 82q0 59 80 59zM100 510q0 182 76 362t193 310t262 212q145 81 280 81q240 1 386 -175q147 -176 147 -408t-100 -440t-292 -346q-190 -138 -426 -139q-236 0 -381 159t-145 384zM1186 1187q0 111 -64 181t-201 70 q-138 0 -246 -144q-109 -144 -213 -506t-104 -504q0 -280 256 -280q158 0 252 117t152 313q109 371 138 506q30 135 30 247z"/>
    <glyph glyph-name="Oacute" unicode="Ó" horiz-adv-x="1478" d="M965 1513h-29l231 342q45 63 95 64q80 0 79 -59q0 -39 -55 -82zM100 510q0 182 76 362t193 310t262 212q145 81 280 81q240 1 386 -175q147 -176 147 -408t-100 -440t-292 -346q-190 -138 -426 -139q-236 0 -381 159t-145 384zM1186 1187q0 111 -64 181t-201 70 q-138 0 -246 -144q-109 -144 -213 -506t-104 -504q0 -280 256 -280q158 0 252 117t152 313q109 371 138 506q30 135 30 247z"/>
    <glyph glyph-name="Ocircumflex" unicode="Ô" horiz-adv-x="1478" d="M717 1513l303 406h139l123 -406h-22l-195 259l-324 -259h-24zM100 510q0 182 76 362t193 310t262 212q145 81 280 81q240 1 386 -175q147 -176 147 -408t-100 -440t-292 -346q-190 -138 -426 -139q-236 0 -381 159t-145 384zM1186 1187q0 111 -64 181t-201 70 q-138 0 -246 -144q-109 -144 -213 -506t-104 -504q0 -280 256 -280q158 0 252 117t152 313q109 371 138 506q30 135 30 247z"/>
    <glyph glyph-name="Otilde" unicode="Õ" horiz-adv-x="1478" d="M1143 1597q-45 0 -155 43t-160 43t-74 -17t-47 -69h-31q25 92 78 169t129 77q45 0 155 -43t159 -43q49 -1 73 17t49 69h31q-25 -92 -78 -169t-129 -77zM100 510q0 182 76 362t193 310t262 212q145 81 280 81q240 1 386 -175q147 -176 147 -408t-100 -440t-292 -346 q-190 -138 -426 -139q-236 0 -381 159t-145 384zM1186 1187q0 111 -64 181t-201 70q-138 0 -246 -144q-109 -144 -213 -506t-104 -504q0 -280 256 -280q158 0 252 117t152 313q109 371 138 506q30 135 30 247z"/>
    <glyph glyph-name="Odieresis" unicode="Ö" horiz-adv-x="1478" d="M1063 1712q0 55 40 95t95 40t95 -40t40 -95t-40 -95t-95 -40t-95 40t-40 95zM707 1712q0 55 39 95q40 40 96 40t95 -40q40 -40 40 -95t-40 -95t-95 -40t-96 40q-39 40 -39 95zM100 510q0 182 76 362t193 310t262 212q145 81 280 81q240 1 386 -175q147 -176 147 -408 t-100 -440t-292 -346q-190 -138 -426 -139q-236 0 -381 159t-145 384zM1186 1187q0 111 -64 181t-201 70q-138 0 -246 -144q-109 -144 -213 -506t-104 -504q0 -280 256 -280q158 0 252 117t152 313q109 371 138 506q30 135 30 247z"/>
    <glyph glyph-name="multiply" unicode="×" horiz-adv-x="1228" d="M487 518l-348 348l127 127l348 -348l349 348l127 -127l-349 -348l349 -348l-127 -127l-349 348l-348 -348l-127 127z"/>
    <glyph glyph-name="Oslash" unicode="Ø" horiz-adv-x="1478" d="M911 1475q178 0 306 -105l92 127l37 -24l-93 -130q91 -85 141 -205t50 -253q0 -225 -100 -433t-292 -346q-191 -138 -429 -139q-172 0 -299 94l-101 -139l-39 25l103 141q-186 158 -187 422q0 182 76 362t193 310t262 212q145 81 280 81zM365 197l798 1099 q-49 141 -233 142q-147 0 -255 -144q-109 -144 -213 -506t-104 -524q1 -34 7 -67zM605 4q167 0 261 117t152 313q168 572 168 704q0 62 -8 103l-795 -1100q55 -137 222 -137z"/>
    <glyph glyph-name="Ugrave" unicode="Ù" horiz-adv-x="1478" d="M674 1860q0 59 80 59q49 0 94 -64l231 -342h-28l-322 265q-55 43 -55 82zM692 4q184 0 306 94t171 262l248 871q31 104 31 125t-34 35t-87 14h-55l10 37h430l-10 -37h-98q-96 0 -131 -137l-263 -920q-59 -211 -202 -296t-326 -85t-345 67q-87 36 -143 108t-57 169 q0 41 47 215l244 879h-152l11 37h622l-10 -37h-164l-291 -1012q-25 -88 -24 -157q0 -124 79 -178t193 -54z"/>
    <glyph glyph-name="Uacute" unicode="Ú" horiz-adv-x="1478" d="M1006 1513h-29l231 342q45 63 95 64q80 0 79 -59q0 -39 -55 -82zM692 4q184 0 306 94t171 262l248 871q31 104 31 125t-34 35t-87 14h-55l10 37h430l-10 -37h-98q-96 0 -131 -137l-263 -920q-59 -211 -202 -296t-326 -85t-345 67q-87 36 -143 108t-57 169q0 41 47 215 l244 879h-152l11 37h622l-10 -37h-164l-291 -1012q-25 -88 -24 -157q0 -124 79 -178t193 -54z"/>
    <glyph glyph-name="Ucircumflex" unicode="Û" horiz-adv-x="1478" d="M717 1513l303 406h139l123 -406h-22l-195 259l-324 -259h-24zM692 4q184 0 306 94t171 262l248 871q31 104 31 125t-34 35t-87 14h-55l10 37h430l-10 -37h-98q-96 0 -131 -137l-263 -920q-59 -211 -202 -296t-326 -85t-345 67q-87 36 -143 108t-57 169q0 41 47 215 l244 879h-152l11 37h622l-10 -37h-164l-291 -1012q-25 -88 -24 -157q0 -124 79 -178t193 -54z"/>
    <glyph glyph-name="Udieresis" unicode="Ü" horiz-adv-x="1478" d="M1104 1712q0 55 40 95t95 40t95 -40t40 -95t-40 -95t-95 -40t-95 40t-40 95zM748 1712q0 55 39 95t95 40t96 -40t40 -95t-40 -95t-95 -40t-96 40q-39 40 -39 95zM692 4q184 0 306 94t171 262l248 871q31 104 31 125t-34 35t-87 14h-55l10 37h430l-10 -37h-98 q-96 0 -131 -137l-263 -920q-59 -211 -202 -296t-326 -85t-345 67q-87 36 -143 108t-57 169q0 41 47 215l244 879h-152l11 37h622l-10 -37h-164l-291 -1012q-25 -88 -24 -157q0 -124 79 -178t193 -54z"/>
    <glyph glyph-name="Yacute" unicode="Ý" horiz-adv-x="1251" d="M1249 1860q0 -39 -55 -82l-322 -265h-28l231 342q45 63 94 64q80 0 80 -59zM1217 1354q0 51 -82 51h-56l11 37h374l-10 -37h-33q-51 0 -85 -28t-89 -101l-481 -666l-162 -573h164l-10 -37h-608l10 37h141l172 610l-78 758h-153l10 37h612l-10 -37h-162l72 -741l381 528 q72 96 72 162z"/>
    <glyph glyph-name="Thorn" unicode="Þ" horiz-adv-x="1366" d="M721 463q102 0 181 91t115 212t36 240q0 178 -197 178h-145l-201 -721h211zM866 1221q469 0 469 -316q0 -235 -169 -357t-453 -122h-213l-109 -389h150l-11 -37h-602l11 37h149l381 1368h-162l10 37h609l-11 -39h-141l-49 -182h141z"/>
    <glyph glyph-name="germandbls" unicode="ß" horiz-adv-x="1251" d="M623 621q-1 51 35 105t90 94q134 100 231 194q53 51 89 130t36 171q0 153 -166 153t-250 -134t-168 -460q-114 -449 -144 -555t-80 -233t-128 -279q-78 -153 -184 -251t-215 -99q-53 0 -100 37q-46 37 -46 99q0 63 34 99t87 36q125 0 125 -109q0 -53 -26 -81t-62 -32v-8 q12 -4 18 -4q39 0 82 32t68 72t58 152q33 113 63 270q30 158 32 164l105 494q76 356 263 592t450 235q119 0 225 -58t106 -169q1 -84 -71 -166t-157 -132t-157 -103t-72 -91t93 -102q141 -102 184 -154t43 -137q0 -178 -110 -292t-285 -113q-113 0 -188 56t-74 146 q0 58 36 98t95 40t93 -31t34 -77t-26 -76t-56 -38q-45 -18 -49 -26q0 -29 53 -48t84 -20q92 0 169 60t77 156q0 97 -122 171q-50 31 -101 61q-121 73 -121 161z"/>
    <glyph glyph-name="agrave" unicode="à" d="M381 1382q0 59 80 60q49 0 94 -64l231 -342h-28l-322 264q-55 43 -55 82zM254 90q0 -78 70 -78q59 0 134 65t126 191q131 328 131 453q0 82 -34 119t-86 37q-51 1 -97 -53t-107 -234l-63 -187q-26 -71 -50 -179t-24 -134zM803 92q0 -43 37 -43q43 1 96 59t78 107l28 -16 q-127 -223 -303 -224q-73 -1 -115 59t-42 150h-4q-37 -78 -115 -144q-79 -66 -183 -65t-170 91t-65 233q0 91 39 197q88 242 271 355q101 62 214 62q152 0 170 -151h4l37 127h256l-202 -686q-31 -109 -31 -111z"/>
    <glyph glyph-name="aacute" unicode="á" d="M1069 1382q0 -39 -55 -82l-322 -264h-28l231 342q45 63 94 64q80 0 80 -60zM254 90q0 -78 70 -78q59 0 134 65t126 191q131 328 131 453q0 82 -34 119t-86 37q-51 1 -97 -53t-107 -234l-63 -187q-26 -71 -50 -179t-24 -134zM803 92q0 -43 37 -43q43 1 96 59t78 107 l28 -16q-127 -223 -303 -224q-73 -1 -115 59t-42 150h-4q-37 -78 -115 -144q-79 -66 -183 -65t-170 91t-65 233q0 91 39 197q88 242 271 355q101 62 214 62q152 0 170 -151h4l37 127h256l-202 -686q-31 -109 -31 -111z"/>
    <glyph glyph-name="acircumflex" unicode="â" d="M424 1036l303 406h139l123 -406h-22l-195 258l-323 -258h-25zM254 90q0 -78 70 -78q59 0 134 65t126 191q131 328 131 453q0 82 -34 119t-86 37q-51 1 -97 -53t-107 -234l-63 -187q-26 -71 -50 -179t-24 -134zM803 92q0 -43 37 -43q43 1 96 59t78 107l28 -16 q-127 -223 -303 -224q-73 -1 -115 59t-42 150h-4q-37 -78 -115 -144q-79 -66 -183 -65t-170 91t-65 233q0 91 39 197q88 242 271 355q101 62 214 62q152 0 170 -151h4l37 127h256l-202 -686q-31 -109 -31 -111z"/>
    <glyph glyph-name="atilde" unicode="ã" d="M870 1120q-44 0 -154 43t-160 43t-74 -17t-48 -69h-31q25 92 78 169t129 77q45 0 155 -43t160 -43q49 0 73 18t49 68h30q-25 -92 -78 -169t-129 -77zM254 90q0 -78 70 -78q59 0 134 65t126 191q131 328 131 453q0 82 -34 119t-86 37q-51 1 -97 -53t-107 -234l-63 -187 q-26 -71 -50 -179t-24 -134zM803 92q0 -43 37 -43q43 1 96 59t78 107l28 -16q-127 -223 -303 -224q-73 -1 -115 59t-42 150h-4q-37 -78 -115 -144q-79 -66 -183 -65t-170 91t-65 233q0 91 39 197q88 242 271 355q101 62 214 62q152 0 170 -151h4l37 127h256l-202 -686 q-31 -109 -31 -111z"/>
    <glyph glyph-name="adieresis" unicode="ä" d="M811 1235q0 55 40 95t95 40t95 -40t40 -95t-40 -95t-95 -40t-95 40t-40 95zM455 1235q0 55 40 95t95 40t95 -40t40 -95t-40 -95t-95 -40t-95 40t-40 95zM254 90q0 -78 70 -78q59 0 134 65t126 191q131 328 131 453q0 82 -34 119t-86 37q-51 1 -97 -53t-107 -234l-63 -187 q-26 -71 -50 -179t-24 -134zM803 92q0 -43 37 -43q43 1 96 59t78 107l28 -16q-127 -223 -303 -224q-73 -1 -115 59t-42 150h-4q-37 -78 -115 -144q-79 -66 -183 -65t-170 91t-65 233q0 91 39 197q88 242 271 355q101 62 214 62q152 0 170 -151h4l37 127h256l-202 -686 q-31 -109 -31 -111z"/>
    <glyph glyph-name="aring" unicode="å" d="M739 1085q57 0 97 39q38 38 38 96t-38 97t-96 39t-97 -39t-39 -96t39 -97t96 -39zM961 1221q0 -90 -66 -156t-156 -66q-89 0 -155 66t-66 156q0 89 67 155t155 66t155 -66q66 -66 66 -155zM254 90q0 -78 70 -78q59 0 134 65t126 191q131 328 131 453q0 82 -34 119t-86 37 q-51 1 -97 -53t-107 -234l-63 -187q-26 -71 -50 -179t-24 -134zM803 92q0 -43 37 -43q43 1 96 59t78 107l28 -16q-127 -223 -303 -224q-73 -1 -115 59t-42 150h-4q-37 -78 -115 -144q-79 -66 -183 -65t-170 91t-65 233q0 91 39 197q88 242 271 355q101 62 214 62 q152 0 170 -151h4l37 127h256l-202 -686q-31 -109 -31 -111z"/>
    <glyph glyph-name="ae" unicode="æ" horiz-adv-x="1478" d="M1006 432q56 0 91 33q36 33 62 100q63 162 64 254q0 68 -76 68q-35 2 -74 -28t-55 -85l-109 -332q41 -10 97 -10zM1187 913q89 0 161 -56q72 -57 72 -145q-1 -169 -131 -236q-129 -68 -265 -68q-78 0 -121 6q-55 -152 -55 -264q0 -58 47 -98t124 -40t161 54t139 137 l27 -15q-137 -213 -383 -213q-143 0 -235 74q-91 74 -112 180h-6q-26 -77 -118 -165t-204 -88t-178 90t-65 233q0 236 155 425t349 189q76 0 127 -49t49 -153h4l51 178h260q58 24 147 24zM254 90q0 -78 70 -78t144 62t114 162q119 303 118 469q0 84 -31 128q-32 44 -79 44 q-46 1 -92 -53t-107 -234l-63 -187q-26 -71 -50 -179t-24 -134z"/>
    <glyph glyph-name="ccedilla" unicode="ç" horiz-adv-x="909" d="M414 -158q60 0 110 -32t49 -103q-1 -69 -71 -109t-161 -40t-212 43l14 37q113 -31 149 -31t84 27q46 28 46 74t-32 66t-62 19q-30 0 -78 -14l-21 16l158 182q-162 5 -252 93t-90 231q0 256 187 434t401 178q106 0 183 -44t77 -148q0 -57 -42 -103q-41 -46 -103 -47 q-62 0 -100 40q-38 41 -38 97t27 86t55 41t27 19q0 23 -86 23q-86 -1 -156 -101q-69 -100 -107 -233t-58 -241t-21 -144q0 -145 145 -146q100 0 196 80q95 81 142 187l31 -13q-137 -274 -373 -289l-137 -151l4 -4q55 20 115 20z"/>
    <glyph glyph-name="egrave" unicode="è" horiz-adv-x="909" d="M672 1036h-29l-321 264q-55 43 -56 82q0 59 80 60q49 0 94 -64zM653 788q0 99 -67 101q-68 1 -121 -101t-121 -335q35 -21 92 -21t93 34t61 99q63 163 63 223zM379 -25q-158 -1 -246 97t-88 236t83 280t213 236q130 93 255 89q98 0 176 -57t78 -154q0 -147 -119 -221 t-276 -73q-72 0 -121 16q-43 -166 -43 -252q0 -160 129 -160q92 0 176 54t139 137l27 -15q-137 -213 -383 -213z"/>
    <glyph glyph-name="eacute" unicode="é" horiz-adv-x="909" d="M954 1382q0 -39 -55 -82l-321 -264h-29l231 342q45 63 94 64q80 0 80 -60zM653 788q0 99 -67 101q-68 1 -121 -101t-121 -335q35 -21 92 -21t93 34t61 99q63 163 63 223zM379 -25q-158 -1 -246 97t-88 236t83 280t213 236q130 93 255 89q98 0 176 -57t78 -154 q0 -147 -119 -221t-276 -73q-72 0 -121 16q-43 -166 -43 -252q0 -160 129 -160q92 0 176 54t139 137l27 -15q-137 -213 -383 -213z"/>
    <glyph glyph-name="ecircumflex" unicode="ê" horiz-adv-x="909" d="M309 1036l303 406h140l122 -406h-22l-195 258l-323 -258h-25zM653 788q0 99 -67 101q-68 1 -121 -101t-121 -335q35 -21 92 -21t93 34t61 99q63 163 63 223zM379 -25q-158 -1 -246 97t-88 236t83 280t213 236q130 93 255 89q98 0 176 -57t78 -154q0 -147 -119 -221 t-276 -73q-72 0 -121 16q-43 -166 -43 -252q0 -160 129 -160q92 0 176 54t139 137l27 -15q-137 -213 -383 -213z"/>
    <glyph glyph-name="edieresis" unicode="ë" horiz-adv-x="909" d="M696 1235q0 55 40 95t95 40t95 -40t41 -95q0 -55 -40 -95q-39 -40 -95 -40t-96 40t-40 95zM340 1235q0 55 40 95t95 40t95 -40t40 -95t-40 -95t-95 -40t-95 40t-40 95zM653 788q0 99 -67 101q-68 1 -121 -101t-121 -335q35 -21 92 -21t93 34t61 99q63 163 63 223z M379 -25q-158 -1 -246 97t-88 236t83 280t213 236q130 93 255 89q98 0 176 -57t78 -154q0 -147 -119 -221t-276 -73q-72 0 -121 16q-43 -166 -43 -252q0 -160 129 -160q92 0 176 54t139 137l27 -15q-137 -213 -383 -213z"/>
    <glyph glyph-name="igrave" unicode="ì" horiz-adv-x="681" d="M154 1382q0 59 79 60q49 0 95 -64l231 -342h-29l-321 264q-55 43 -55 82zM383 889q125 0 188 45l-223 -731q-31 -109 -31 -111q0 -43 37 -43q42 1 96 59t78 107l29 -16q-127 -223 -285 -224q-53 1 -92 17t-56 38q-16 22 -28 53t-12 66t25 117l182 586h-127l8 37h211z"/>
    <glyph glyph-name="iacute" unicode="í" horiz-adv-x="681" d="M842 1382q0 -39 -56 -82l-321 -264h-29l232 342q45 63 94 64q80 0 80 -60zM383 889q125 0 188 45l-223 -731q-31 -109 -31 -111q0 -43 37 -43q42 1 96 59t78 107l29 -16q-127 -223 -285 -224q-53 1 -92 17t-56 38q-16 22 -28 53t-12 66t25 117l182 586h-127l8 37h211z "/>
    <glyph glyph-name="icircumflex" unicode="î" horiz-adv-x="681" d="M156 1036l303 406h139l123 -406h-23l-194 258l-324 -258h-24zM383 889q125 0 188 45l-223 -731q-31 -109 -31 -111q0 -43 37 -43q42 1 96 59t78 107l29 -16q-127 -223 -285 -224q-53 1 -92 17t-56 38q-16 22 -28 53t-12 66t25 117l182 586h-127l8 37h211z"/>
    <glyph glyph-name="idieresis" unicode="ï" horiz-adv-x="681" d="M584 1235q0 55 40 95t95 40t95 -40t40 -95t-40 -95t-95 -40t-95 40t-40 95zM227 1235q0 55 40 95t95 40q56 0 96 -40t40 -95t-40 -95t-96 -40t-95 40q-40 40 -40 95zM383 889q125 0 188 45l-223 -731q-31 -109 -31 -111q0 -43 37 -43q42 1 96 59t78 107l29 -16 q-127 -223 -285 -224q-53 1 -92 17t-56 38q-16 22 -28 53t-12 66t25 117l182 586h-127l8 37h211z"/>
    <glyph glyph-name="eth" unicode="ð" horiz-adv-x="1024" d="M713 778q0 111 -108 111q-94 0 -136 -61q-70 -97 -166 -441q-49 -178 -49 -252q0 -135 121 -135q68 0 107 35q38 35 53 73t41 102t82 288t55 280zM45 330q0 166 85 305t205 209q121 70 227 70t151 -37q0 184 -82 344l-221 -111l-27 55l213 105q-49 109 -150 180l39 25 q109 -59 197 -162l213 106l33 -53l-199 -96q2 -4 33 -50t44 -68q56 -94 85 -202t30 -272t-67 -328t-195 -269t-272 -105t-243 94t-99 260z"/>
    <glyph glyph-name="ntilde" unicode="ñ" d="M870 1120q-44 0 -154 43t-160 43t-74 -17t-48 -69h-31q25 92 78 169t129 77q45 0 155 -43t160 -43q49 0 73 18t49 68h30q-25 -92 -78 -169t-129 -77zM352 889q125 0 189 45l-84 -260l4 -2q149 182 223 211q74 30 146 30t123 -46q51 -47 51 -113t-78 -291l-92 -260 q-31 -92 -31 -111q0 -43 37 -43q43 1 96 59t78 107l28 -16q-127 -223 -303 -224q-78 1 -124 51t-46 121q0 25 29 117l162 479q23 68 22 91q0 31 -43 30q-69 0 -181 -125t-136 -207l-154 -532h-262l246 852h-119l8 37h211z"/>
    <glyph glyph-name="ograve" unicode="ò" horiz-adv-x="1024" d="M324 1382q0 59 79 60q49 0 95 -64l231 -342h-29l-321 264q-55 43 -55 82zM713 778q0 111 -108 111q-94 0 -136 -61q-70 -97 -166 -441q-49 -178 -49 -252q0 -135 121 -135q68 0 107 35q38 35 53 73t41 102t82 288t55 280zM922 539q0 -207 -157 -385t-388 -179 q-135 1 -233 95t-99 260q0 166 85 305t205 209t243 69q160 0 252 -106t92 -268z"/>
    <glyph glyph-name="oacute" unicode="ó" horiz-adv-x="1024" d="M1012 1382q0 -39 -56 -82l-321 -264h-29l232 342q45 63 94 64q80 0 80 -60zM713 778q0 111 -108 111q-94 0 -136 -61q-70 -97 -166 -441q-49 -178 -49 -252q0 -135 121 -135q68 0 107 35q38 35 53 73t41 102t82 288t55 280zM922 539q0 -207 -157 -385t-388 -179 q-135 1 -233 95t-99 260q0 166 85 305t205 209t243 69q160 0 252 -106t92 -268z"/>
    <glyph glyph-name="ocircumflex" unicode="ô" horiz-adv-x="1024" d="M367 1036l303 406h139l123 -406h-23l-194 258l-324 -258h-24zM713 778q0 111 -108 111q-94 0 -136 -61q-70 -97 -166 -441q-49 -178 -49 -252q0 -135 121 -135q68 0 107 35q38 35 53 73t41 102t82 288t55 280zM922 539q0 -207 -157 -385t-388 -179q-135 1 -233 95 t-99 260q0 166 85 305t205 209t243 69q160 0 252 -106t92 -268z"/>
    <glyph glyph-name="otilde" unicode="õ" horiz-adv-x="1024" d="M813 1120q-45 0 -155 43t-160 43t-73 -17q-24 -17 -48 -69h-31q25 92 78 169t129 77q45 0 155 -43t160 -43t73 17q23 18 48 69h31q-25 -92 -78 -169t-129 -77zM713 778q0 111 -108 111q-94 0 -136 -61q-70 -97 -166 -441q-49 -178 -49 -252q0 -135 121 -135q68 0 107 35 q38 35 53 73t41 102t82 288t55 280zM922 539q0 -207 -157 -385t-388 -179q-135 1 -233 95t-99 260q0 166 85 305t205 209t243 69q160 0 252 -106t92 -268z"/>
    <glyph glyph-name="odieresis" unicode="ö" horiz-adv-x="1024" d="M754 1235q0 55 40 95t95 40t95 -40t40 -95t-40 -95t-95 -40t-95 40t-40 95zM397 1235q0 55 40 95t95 40q56 0 96 -40t40 -95t-40 -95t-96 -40t-95 40q-40 40 -40 95zM713 778q0 111 -108 111q-94 0 -136 -61q-70 -97 -166 -441q-49 -178 -49 -252q0 -135 121 -135 q68 0 107 35q38 35 53 73t41 102t82 288t55 280zM922 539q0 -207 -157 -385t-388 -179q-135 1 -233 95t-99 260q0 166 85 305t205 209t243 69q160 0 252 -106t92 -268z"/>
    <glyph glyph-name="divide" unicode="÷" horiz-adv-x="1228" d="M459 94q0 56 45 102t102 46q56 0 102 -45t46 -103t-45 -102q-45 -45 -103 -45t-102 45q-45 45 -45 102zM459 942q0 57 45 102q45 46 102 46q56 0 102 -46t46 -102q0 -57 -45 -102t-103 -45t-102 45q-45 45 -45 102zM96 432v172h1037v-172h-1037z"/>
    <glyph glyph-name="oslash" unicode="ø" horiz-adv-x="1024" d="M113 -53l-31 22l70 94q-106 97 -106 265t84 307q85 139 205 209q121 70 231 70t184 -44l61 84l31 -20l-62 -82q142 -104 142 -312t-157 -386t-388 -179q-111 0 -195 66zM594 889q-111 0 -169 -132t-161 -538l4 -4l445 598q0 31 -32 53t-87 23zM375 0q39 0 67 10 q105 37 206 470q24 99 65 274l-4 4l-455 -623q0 -135 121 -135z"/>
    <glyph glyph-name="ugrave" unicode="ù" d="M381 1382q0 59 80 60q49 0 94 -64l231 -342h-28l-322 264q-55 43 -55 82zM344 889q125 0 188 45l-221 -729q-31 -96 -30 -129q0 -39 45 -39q33 0 90 51q56 51 118 135t87 162l161 504h265l-213 -686q-31 -109 -31 -111q0 -43 37 -43q43 1 96 59t78 107l28 -16 q-127 -223 -303 -224q-80 -1 -125 49t-45 104t17 112h-4q-129 -195 -246 -242q-57 -23 -128 -23t-116 44t-45 118q0 31 27 129l178 586h-127l8 37h211z"/>
    <glyph glyph-name="uacute" unicode="ú" d="M1069 1382q0 -39 -55 -82l-322 -264h-28l231 342q45 63 94 64q80 0 80 -60zM344 889q125 0 188 45l-221 -729q-31 -96 -30 -129q0 -39 45 -39q33 0 90 51q56 51 118 135t87 162l161 504h265l-213 -686q-31 -109 -31 -111q0 -43 37 -43q43 1 96 59t78 107l28 -16 q-127 -223 -303 -224q-80 -1 -125 49t-45 104t17 112h-4q-129 -195 -246 -242q-57 -23 -128 -23t-116 44t-45 118q0 31 27 129l178 586h-127l8 37h211z"/>
    <glyph glyph-name="ucircumflex" unicode="û" d="M424 1036l303 406h139l123 -406h-22l-195 258l-323 -258h-25zM344 889q125 0 188 45l-221 -729q-31 -96 -30 -129q0 -39 45 -39q33 0 90 51q56 51 118 135t87 162l161 504h265l-213 -686q-31 -109 -31 -111q0 -43 37 -43q43 1 96 59t78 107l28 -16q-127 -223 -303 -224 q-80 -1 -125 49t-45 104t17 112h-4q-129 -195 -246 -242q-57 -23 -128 -23t-116 44t-45 118q0 31 27 129l178 586h-127l8 37h211z"/>
    <glyph glyph-name="udieresis" unicode="ü" d="M811 1235q0 55 40 95t95 40t95 -40t40 -95t-40 -95t-95 -40t-95 40t-40 95zM455 1235q0 55 40 95t95 40t95 -40t40 -95t-40 -95t-95 -40t-95 40t-40 95zM344 889q125 0 188 45l-221 -729q-31 -96 -30 -129q0 -39 45 -39q33 0 90 51q56 51 118 135t87 162l161 504h265 l-213 -686q-31 -109 -31 -111q0 -43 37 -43q43 1 96 59t78 107l28 -16q-127 -223 -303 -224q-80 -1 -125 49t-45 104t17 112h-4q-129 -195 -246 -242q-57 -23 -128 -23t-116 44t-45 118q0 31 27 129l178 586h-127l8 37h211z"/>
    <glyph glyph-name="yacute" unicode="ý" d="M1069 1382q0 -39 -55 -82l-322 -264h-28l231 342q45 63 94 64q80 0 80 -60zM239 742q-15 24 -47 24t-57 -32q-39 -51 -58 -90l-18 -36l-28 10q147 295 325 295q135 0 148 -143l51 -520h4l293 498q98 166 211 165q59 -1 95 -35t36 -94t-37 -100q-37 -41 -89 -41t-86 30 t-34 77t25 77q-31 0 -107 -122l-563 -953q-84 -145 -166 -220t-213 -75q-66 0 -112 38t-45 103q1 66 37 110t92 44t92 -30q37 -30 37 -81q-1 -51 -21 -77t-40 -36q-20 -9 -21 -13q0 -20 24 -21q72 0 143 54t119 143l117 209l-76 704q-6 55 -11 84q-5 30 -20 54z"/>
    <glyph glyph-name="thorn" unicode="þ" d="M375 202q0 -48 38 -113t94 -65t99 70q42 70 92 207t83 273q34 136 34 213t-73 77q-72 0 -158 -92t-115 -188l-63 -219q-31 -115 -31 -163zM438 1442q213 0 293 63l-221 -772h4q47 76 125 128t164 52q119 0 176 -88t57 -218t-54 -272t-169 -251t-258 -109q-164 0 -205 189 h-4l-199 -670h136l-11 -37h-499l8 37h104l561 1911h-127l9 37h110z"/>
    <glyph glyph-name="ydieresis" unicode="ÿ" d="M811 1235q0 55 40 95t95 40t95 -40t40 -95t-40 -95t-95 -40t-95 40t-40 95zM455 1235q0 55 40 95t95 40t95 -40t40 -95t-40 -95t-95 -40t-95 40t-40 95zM239 742q-15 24 -47 24t-57 -32q-39 -51 -58 -90l-18 -36l-28 10q147 295 325 295q135 0 148 -143l51 -520h4 l293 498q98 166 211 165q59 -1 95 -35t36 -94t-37 -100q-37 -41 -89 -41t-86 30t-34 77t25 77q-31 0 -107 -122l-563 -953q-84 -145 -166 -220t-213 -75q-66 0 -112 38t-45 103q1 66 37 110t92 44t92 -30q37 -30 37 -81q-1 -51 -21 -77t-40 -36q-20 -9 -21 -13q0 -20 24 -21 q72 0 143 54t119 143l117 209l-76 704q-6 55 -11 84q-5 30 -20 54z"/>
    <glyph glyph-name="dotlessi" unicode="ı" horiz-adv-x="681" d="M383 889q125 0 188 45l-223 -731q-31 -109 -31 -111q0 -43 37 -43q42 1 96 59t78 107l29 -16q-127 -223 -285 -224q-53 1 -92 17t-56 38q-16 22 -28 53t-12 66t25 117l182 586h-127l8 37h211z"/>
    <glyph glyph-name="Lslash" unicode="Ł" horiz-adv-x="1366" d="M600 37q231 0 402 137t243 389l31 -6l-158 -557h-1212l10 37h150l159 571l-166 -86l25 82l164 84l198 717h-161l10 37h616l-10 -37h-149l-150 -535l377 195l-25 -82l-374 -192l-211 -754h231z"/>
    <glyph glyph-name="lslash" unicode="ł" horiz-adv-x="681" d="M424 1442q213 0 293 63l-176 -606l213 119l-25 -86l-215 -119l-176 -610q-31 -109 -31 -111q0 -43 37 -43q43 1 96 59t78 107l29 -16q-127 -223 -285 -224q-53 1 -92 17t-56 38q-16 22 -28 53t-12 66t24 117l113 385l-150 -82l25 84l152 84l194 668h-123l8 37h107z"/>
    <glyph glyph-name="OE" unicode="Œ" horiz-adv-x="2048" d="M358 264q0 -112 73 -186t198 -74t167 40t85 198l286 1026q12 39 13 71q0 98 -232 99q-78 0 -146 -36t-113 -89q-46 -53 -103 -170t-109 -301q-119 -412 -119 -578zM1739 1405h-234l-170 -606h142q77 -1 121 29t69 98l33 94h35q-98 -344 -138 -518h-32q20 86 20 149 t-36 87t-109 24h-115l-203 -725h228q204 0 332 123t190 297h35l-125 -457h-834q-16 0 -121 -17t-163 -16q-246 0 -406 157q-160 156 -159 402t121 463t317 351t405 135q72 1 108 -7q122 -26 205 -26h832l-74 -393h-35q10 72 11 86q0 270 -250 270z"/>
    <glyph glyph-name="oe" unicode="œ" horiz-adv-x="1478" d="M1223 788q0 99 -68 101q-68 1 -121 -101t-121 -335q35 -21 92 -21t94 34q36 34 80 148t44 174zM948 -25q-172 0 -258 105q-125 -104 -313 -105q-135 1 -233 95t-99 260q0 166 85 305t205 209q121 70 223 70q212 -1 290 -126q143 125 317 125q98 0 176 -57t78 -154 q0 -147 -119 -221t-276 -73q-72 0 -121 16q-43 -166 -43 -252q0 -160 129 -160q93 0 177 54t139 137l26 -15q-137 -213 -383 -213zM713 778q0 111 -108 111q-94 0 -136 -61q-67 -93 -165 -443q-50 -176 -50 -250q0 -135 121 -135q68 0 107 35q38 35 53 73t41 102t82 288 t55 280z"/>
    <glyph glyph-name="Scaron" unicode="Š" horiz-adv-x="1251" d="M1233 1919l-303 -406h-139l-123 406h22l195 -262l323 262h25zM546 4q179 0 279 95t101 261q0 137 -217 233q-89 40 -181 84t-155 121t-63 171t29 178q72 201 234 280q95 47 199 47t196 -30q92 -31 152 -63q61 -32 82 -31q25 0 55 53l25 -8q-78 -227 -127 -422l-33 6 q8 31 8 90q0 158 -95 263q-95 106 -251 106t-242 -75t-85 -161q-1 -86 67 -144t163 -104t191 -97q96 -50 164 -129t68 -177q0 -231 -158 -407t-391 -177q-82 0 -164 25t-175 79t-134 54q-63 0 -90 -74l-29 10q93 269 150 492l33 -10q-20 -53 -21 -125q0 -190 118 -302 t297 -112z"/>
    <glyph glyph-name="scaron" unicode="š" horiz-adv-x="909" d="M958 1442l-303 -406h-139l-123 406h23l194 -262l324 262h24zM731 270q1 -92 -65 -162q-123 -132 -347 -133q-111 -1 -211 63t-102 163q0 63 33 103t89 40t90 -37t34 -92t-32 -84t-72 -31t-39 -16q0 -10 28 -30q29 -18 82 -36t105 -18q211 0 211 170q1 57 -55 102t-122 74 t-120 89t-56 145q0 143 112 238t263 95q96 0 184 -45t88 -135q-1 -61 -31 -100t-84 -39t-86 35t-32 86q0 96 88 112q23 4 23 15q-1 16 -59 31q-58 16 -112 16t-118 -40q-64 -41 -64 -105t39 -103t94 -66t111 -59t94 -94q39 -60 39 -152z"/>
    <glyph glyph-name="Ydieresis" unicode="Ÿ" horiz-adv-x="1251" d="M991 1712q0 55 40 95t95 40q56 0 96 -40t40 -95t-40 -95t-96 -40t-95 40q-40 40 -40 95zM635 1712q0 55 40 95t95 40t95 -40t40 -95t-40 -95t-95 -40t-95 40t-40 95zM1217 1354q0 51 -82 51h-56l11 37h374l-10 -37h-33q-51 0 -85 -28t-89 -101l-481 -666l-162 -573h164 l-10 -37h-608l10 37h141l172 610l-78 758h-153l10 37h612l-10 -37h-162l72 -741l381 528q72 96 72 162z"/>
    <glyph glyph-name="Zcaron" unicode="Ž" horiz-adv-x="1366" d="M1311 1919l-303 -406h-140l-123 406h23l195 -262l323 262h25zM809 1405q-195 0 -306 -101q-56 -52 -89 -96t-78 -123l-45 -77h-25l99 434h1081l-1073 -1405h362q145 0 281 116q135 116 217 296h29l-117 -449h-1168l1072 1405h-240z"/>
    <glyph glyph-name="zcaron" unicode="ž" horiz-adv-x="1024" d="M1016 1442l-303 -406h-140l-122 406h22l195 -262l323 262h25zM36 0q-20 0 -34 12t-14 29q-1 45 69 106l617 547h-4q-145 -61 -361 -61q-111 0 -174 29l-45 -84l-29 12q105 206 156 311q209 -72 432 -72l164 13q0 72 39 71q35 0 35 -45t-107 -137l-577 -500l4 -4 q92 31 176 31t218 -68t165 -68t51 30q21 29 21 45t-11 16l-28 -4q-43 0 -71 28q-28 27 -28 71t27 71t70 27q100 0 100 -112t-97 -209t-245 -97q-81 0 -233 55t-220 55q-27 0 -26 -18l10 -33q0 -19 -15 -33t-35 -14z"/>
    <glyph glyph-name="florin" unicode="ƒ" d="M1073 1458q78 0 136 -35q59 -35 59 -102t-35 -98t-88 -31q-123 0 -123 117q0 57 46 89q15 11 15 17t-28 6q-68 0 -127 -91t-91 -196q-32 -106 -66 -238t-46 -165h283l-9 -37h-286q-23 -78 -89 -324t-108 -364q-43 -120 -80 -197t-96 -159q-122 -170 -328 -170 q-70 0 -125 36t-55 94t33 95t84 37q129 0 129 -109q0 -65 -38 -92q-13 -10 -13 -17t24 -7q48 0 80 51q39 65 53 107q47 139 47 157q62 217 195 862h-272l12 37h268q29 149 117 313t231 289t291 125z"/>
    <glyph glyph-name="circumflex" unicode="ˆ" horiz-adv-x="569" d="M139 1036l303 406h140l123 -406h-23l-195 258l-323 -258h-25z"/>
    <glyph glyph-name="caron" unicode="ˇ" horiz-adv-x="569" d="M788 1442l-303 -406h-139l-123 406h23l194 -262l324 262h24z"/>
    <glyph glyph-name="uni02C9" unicode="ˉ" horiz-adv-x="569" d="M215 1311h512l-29 -123h-512z"/>
    <glyph glyph-name="breve" unicode="˘" horiz-adv-x="569" d="M422 1083q-96 -1 -163 59t-66 156q0 53 12 107h31l-7 -33q0 -74 72 -114t164 -40t177 50q85 49 114 135h30q-45 -141 -136 -231t-228 -89z"/>
    <glyph glyph-name="dotaccent" unicode="˙" horiz-adv-x="569" d="M272 1235q0 55 40 95t96 40t95 -40q40 -40 40 -95t-40 -95t-95 -40t-96 40q-40 40 -40 95z"/>
    <glyph glyph-name="ring" unicode="˚" horiz-adv-x="569" d="M455 1085q57 0 96 39q39 38 39 96t-39 97t-96 39t-97 -39t-39 -96q0 -57 39 -97q40 -39 97 -39zM676 1221q0 -90 -66 -156t-156 -66t-155 66q-66 66 -66 156q0 89 66 155t156 66q89 0 155 -66t66 -155z"/>
    <glyph glyph-name="ogonek" unicode="˛" horiz-adv-x="569" d="M236 -406q-91 0 -143 37t-52 111q0 156 293 258h35q-4 -4 -29 -19t-35 -23t-34 -28q-24 -19 -53 -59q-28 -40 -29 -88q-1 -49 32 -82t88 -33t127 31l10 -33q-119 -72 -210 -72z"/>
    <glyph glyph-name="tilde" unicode="˜" horiz-adv-x="569" d="M586 1120q-45 0 -155 43t-160 43q-49 0 -73 -17t-48 -69h-31q25 92 78 169t129 77q44 0 154 -43t160 -43t74 17q23 18 48 69h31q-25 -92 -78 -169t-129 -77z"/>
    <glyph glyph-name="hungarumlaut" unicode="˝" horiz-adv-x="569" d="M946 1382q0 -39 -55 -82l-322 -264h-28l231 342q45 63 94 64q80 0 80 -60zM242 1036h-29l231 342q45 63 95 64q80 0 79 -60q0 -39 -55 -82z"/>
    <glyph glyph-name="uni03A9" unicode="Ω" horiz-adv-x="1488" d="M903 1376q-168 0 -303 -143t-201 -459q-46 -218 7 -430t92 -305l-25 -39h-481l14 299l53 4q10 -96 36 -126t89 -30h211q-101 108 -135 171q-65 120 -77 197q-24 145 3 276q64 293 274 472t470 179t389 -172t65 -465q-48 -217 -202 -387q-121 -134 -289 -271h223 q66 0 100 27t87 129l53 -4l-115 -299h-485l-6 39q14 19 82 111q108 147 203 304t132 330q63 305 -16 449q-80 143 -248 143z"/>
    <glyph glyph-name="uni03BC" unicode="μ" d="M344 889q125 0 188 45l-221 -729q-31 -96 -30 -129q0 -39 45 -39q33 0 90 51q56 51 118 135t87 162l161 504h265l-213 -686q-31 -109 -31 -111q0 -43 37 -43q43 1 96 59t78 107l28 -16q-127 -223 -303 -224q-80 -1 -125 49t-45 104t17 112h-4q-51 -76 -90 -123t-108 -92 t-144 -50l-47 -213q-56 -249 -139 -288q-34 -16 -85 -16t-82 34q-31 35 -30 78q-1 78 77 270t99 260l219 752h-127l8 37h211z"/>
    <glyph glyph-name="pi" unicode="π" horiz-adv-x="1161" d="M451 915l546 -8q49 -1 77 13t61 57l47 -19q-49 -123 -115 -190q-35 -8 -139 -8q-33 -106 -111 -473q-41 -188 49 -189q43 0 113 60l18 -43q-109 -139 -245 -140q-88 -1 -123 59t1 234t126 496q-229 4 -312 4l-8 -37q-45 -215 -129 -434t-160 -287q-80 -31 -133 -35l-4 35 q129 129 220 346t135 416q-91 0 -147 -20t-138 -72l-19 47q27 27 43 41t34 32q20 18 32 26q12 7 54 35q80 54 227 54z"/>
    <glyph glyph-name="uni2010" unicode="‐" horiz-adv-x="1024" d="M152 444l53 172h622l-53 -172h-622z"/>
    <glyph glyph-name="endash" unicode="–" horiz-adv-x="1024" d="M-23 451l46 159h1024l-46 -159h-1024z"/>
    <glyph glyph-name="emdash" unicode="—" horiz-adv-x="2048" d="M2071 610l-46 -159h-2048l46 159h2048z"/>
    <glyph glyph-name="quoteleft" unicode="‘" horiz-adv-x="569" d="M334 1143q0 -15 7 -15t27 6t38 5q48 0 84 -37q36 -38 36 -98t-44 -110t-109 -50t-102 48q-36 48 -35 112q0 144 116 284t258 187l6 -35q-88 -23 -185 -118t-97 -179z"/>
    <glyph glyph-name="quoteright" unicode="’" horiz-adv-x="569" d="M518 1176q0 14 -10 14l-62 -10q-49 0 -85 37q-35 37 -35 97t44 110t109 50t101 -48t36 -111q0 -143 -115 -284q-116 -140 -259 -187l-6 35q88 23 185 117t97 180z"/>
    <glyph glyph-name="quotesinglbase" unicode="‚" horiz-adv-x="569" d="M231 -20q0 14 -7 14t-27 -4q-12 -6 -49 -6t-73 36t-36 98q0 60 44 110q43 50 109 50t102 -48t36 -111q0 -143 -116 -283t-259 -188l-6 35q88 23 185 117t97 180z"/>
    <glyph glyph-name="quotedblleft" unicode="“" horiz-adv-x="1024" d="M758 1143q0 -15 7 -15t27 6t37 5q49 0 85 -37q36 -38 36 -98t-44 -110t-109 -50t-102 48q-36 48 -36 112q0 144 116 284t259 187l6 -35q-88 -23 -185 -118t-97 -179zM365 1143q0 -15 7 -15t26 6t38 5q49 0 85 -37q36 -38 36 -98t-44 -110q-43 -50 -109 -50t-102 48 t-36 112q0 144 116 284t259 187l6 -35q-88 -23 -185 -118t-97 -179z"/>
    <glyph glyph-name="quotedblright" unicode="”" horiz-adv-x="1024" d="M942 1176q0 14 -10 14l-62 -10q-49 0 -85 37q-35 37 -35 97t44 110t109 50t101 -48t36 -111q0 -143 -115 -284q-116 -140 -259 -187l-7 35q88 23 186 117q97 95 97 180zM356 1314q0 60 44 110t110 50t101 -48q36 -48 36 -111q0 -143 -116 -283t-259 -188l-6 35 q88 23 186 117q97 95 97 180q0 14 -10 14l-62 -10q-49 0 -85 37t-36 97z"/>
    <glyph glyph-name="quotedblbase" unicode="„" horiz-adv-x="1024" d="M659 -6q-4 0 -24 -4q-12 -6 -49 -6t-73 36t-36 98q0 60 44 110q43 50 109 50t102 -48t36 -111q0 -143 -116 -283t-259 -188l-6 35q88 23 185 117t98 180q0 14 -11 14zM276 -20q0 14 -7 14t-27 -4q-12 -6 -49 -6t-73 36t-36 98q0 60 44 110t110 50t101 -48q36 -48 36 -111 q0 -143 -116 -283t-259 -188l-6 35q88 23 185 117t97 180z"/>
    <glyph glyph-name="dagger" unicode="†" d="M139 563q-16 -1 -16 15t21 45q22 29 22 30q0 10 -53 35t-54 39q0 13 75 33t75 37l-10 55q0 29 15 29t44 -25q111 -104 332 -115q43 183 43 301t-53 224q-18 35 -19 45q0 18 21 18q10 0 43 -16q33 -17 40 -17t23 17t37 58q52 103 84 104q20 0 20 -48q0 -125 19 -124l84 22 q47 0 0 -53q-110 -119 -146 -170q-104 -158 -163 -361q209 18 352 99q76 41 88 41q12 -1 12 -19t-19 -48q-20 -30 -20 -36t52 -26t53 -36t-71 -34q-72 -20 -73 -27l7 -59q0 -39 -19 -39q-8 0 -43 27q-55 55 -150 88t-180 33l-45 -187q-84 -346 -84 -528t35 -299 q6 -20 -18 -21l-88 31q-16 0 -32 -40q-16 -39 -57 -105q-40 -66 -65 -66q-14 0 -26 26q-11 26 -11 54l6 106q0 29 -14 29l-92 -29q-44 0 4 64q150 190 229 352q80 162 164 426l60 187q-193 -10 -308 -76t-131 -66z"/>
    <glyph glyph-name="daggerdbl" unicode="‡" d="M45 270q8 0 43 -26q54 -55 150 -88t182 -33q53 148 53 248q0 43 -55 112q100 72 136 143t69 218q-195 -10 -312 -76t-132 -66t-15 16t21 43q22 28 22 32q0 11 -53 35t-54 38q0 14 75 34t75 36l-10 55q0 29 15 29t44 -25q111 -104 334 -114q56 228 -40 385q-22 35 -22 45 q0 18 21 18q10 0 43 -16q33 -17 40 -17q21 -2 67 88q46 89 77 91q20 0 21 -48q0 -125 18 -124l84 22q25 0 25 -14q0 -20 -68 -84q-139 -135 -229 -346q211 18 356 98q76 41 88 41t12 -18t-19 -48t-19 -36t52 -26t52 -36t-72 -36t-71 -25l6 -60q0 -39 -19 -39q-8 0 -43 27 q-55 55 -150 88t-181 33q-53 -147 -54 -248q0 -43 56 -113q-100 -73 -136 -143t-69 -217q195 10 311 76q116 65 131 65q17 0 17 -15t-22 -43t-22 -32q0 -10 54 -35t53 -39q0 -14 -75 -33t-75 -36l11 -56q0 -29 -17 -28q-14 0 -43 24q-111 104 -333 115q-23 -94 -23 -161 t20 -128t42 -96t22 -45q0 -18 -21 -18q-10 0 -43 16q-34 16 -40 16t-22 -15t-45 -73q-47 -92 -77 -92q-20 0 -20 49q0 125 -19 125l-84 -22q-25 0 -24 14q0 20 67 84q139 135 230 346q-211 -18 -357 -98q-76 -41 -88 -41t-12 18t19 48q20 30 20 36q0 7 -52 27t-53 37 q-1 13 71 33t73 26l-6 59q0 39 18 39z"/>
    <glyph glyph-name="bullet" unicode="•" horiz-adv-x="1024" d="M178 721q0 150 106 255t255 105q150 0 255 -105t105 -255t-105 -255q-105 -106 -255 -106q-149 0 -255 106t-106 255z"/>
    <glyph glyph-name="ellipsis" unicode="…" horiz-adv-x="2048" d="M1442 109q0 69 44 119t107 50t97 -34q34 -36 34 -94t-38 -112t-124 -54q-87 0 -107 59q-13 39 -13 66zM760 109q0 69 44 119t107 50t97 -34q34 -36 34 -94t-38 -112t-124 -54q-87 0 -107 59q-13 39 -13 66zM78 109q0 69 44 119t107 50t97 -34q34 -36 34 -94t-38 -112 t-124 -54q-87 0 -107 59q-13 39 -13 66z"/>
    <glyph glyph-name="perthousand" unicode="‰" horiz-adv-x="2048" d="M1618 8q53 0 94 60t84 217l59 217q37 139 -3 185q-19 24 -59 24q-82 0 -153 -238l-59 -207q-33 -121 -33 -164q0 -42 20 -68t50 -26zM1624 -16q-104 0 -152 81q-46 81 -47 187q0 160 113 322t256 161q100 0 150 -83t51 -182q0 -99 -46 -210q-45 -112 -133 -194t-192 -82z M302 707q-104 1 -150 81t-48 187q0 159 113 321t256 162q101 0 151 -83t50 -182t-46 -210t-134 -193t-192 -83zM982 -16q-104 0 -151 81t-47 187q0 160 113 322t256 161q101 0 151 -83t50 -182t-46 -210q-46 -112 -134 -194t-192 -82zM297 731q53 1 94 61t84 216l60 217 q16 61 16 111q1 50 -19 74t-60 24q-82 0 -153 -238l-59 -207q-33 -121 -33 -164q-1 -43 19 -69t51 -25zM209 -33l952 1508h88l-950 -1508h-90zM977 8q53 0 94 60t84 217l59 217q37 139 -3 185q-19 24 -59 24q-82 0 -153 -238l-59 -207q-33 -121 -33 -164q-1 -42 19 -68 t51 -26z"/>
    <glyph glyph-name="guilsinglleft" unicode="‹" horiz-adv-x="569" d="M250 180l-180 350l307 351h123l-312 -351l172 -350h-110z"/>
    <glyph glyph-name="guilsinglright" unicode="›" horiz-adv-x="569" d="M319 881l181 -351l-307 -350h-123l311 350l-172 351h110z"/>
    <glyph glyph-name="fraction" unicode="⁄" horiz-adv-x="342" d="M-336 -33l948 1508h93l-949 -1508h-92z"/>
    <glyph glyph-name="Euro" unicode="€" d="M903 1372q-167 0 -275 -129t-182 -379h549l-47 -78h-522q-12 -39 -29 -133h467l-49 -78h-432q-37 -247 25 -377t221 -130q100 0 184 50t123 154h43l-47 -168q-127 -119 -365 -118q-467 0 -389 589h-143l49 78h100q4 39 15 72q4 33 14 61h-133l49 78h107q94 297 244 446 q151 148 398 148t316 -117l-25 -172h-43q8 99 -52 151t-171 52z"/>
    <glyph glyph-name="afii61289" unicode="ℓ" horiz-adv-x="849" d="M649 1462q-55 0 -98 -100t-98 -361l-54 -256q105 103 187 237t106 246q50 234 -43 234zM340 -12q-143 0 -195 80q-27 47 -29 107q-3 60 23 194l35 166l-139 -91l-17 52l172 116l58 269q53 251 97 359t126 185q101 103 199 103t131 -79t6 -196q-35 -170 -143 -313 t-287 -293l-39 -188q-39 -205 -13 -279t119 -74q119 0 256 152l33 -37q-172 -233 -393 -233z"/>
    <glyph glyph-name="trademark" unicode="™" horiz-adv-x="2048" d="M1155 1208v-405q0 -139 78 -139h29v-50h-273v50h31q74 0 74 139v485q-43 104 -142 105v49h285l291 -592l309 592h236v-49h-33q-35 2 -57 -25t-21 -72v-536q0 -56 16 -76t64 -20h24v-50h-391v50h29q43 0 58 20t16 76v448h-4l-301 -596h-27l-287 596h-4zM301 614v50h43 q63 0 64 96v633h-99q-102 -2 -131 -131h-49v180h741v-180h-49q-29 129 -131 131h-98v-633q0 -96 63 -96h43v-50h-397z"/>
    <glyph glyph-name="Omega" unicode="Ω" horiz-adv-x="1488" d="M903 1376q-168 0 -303 -143t-201 -459q-46 -218 7 -430t92 -305l-25 -39h-481l14 299l53 4q10 -96 36 -126t89 -30h211q-101 108 -135 171q-65 120 -77 197q-24 145 3 276q64 293 274 472t470 179t389 -172t65 -465q-48 -217 -202 -387q-121 -134 -289 -271h223 q66 0 100 27t87 129l53 -4l-115 -299h-485l-6 39q14 19 82 111q108 147 203 304t132 330q63 305 -16 449q-80 143 -248 143z"/>
    <glyph glyph-name="estimated" unicode="℮" horiz-adv-x="1955" d="M1587 752v403q0 27 -20 47q-213 209 -499 209t-497 -215q-20 -25 -20 -51v-393q0 -12 12 -13h1014q10 1 10 13zM1886 698h-1323q-12 0 -12 -8v-401q0 -18 18 -45q211 -217 513 -217t515 243h117q-112 -131 -282 -208t-365 -76q-338 0 -577 215q-238 215 -238 519t238 519 q239 215 578 215t579 -215t239 -520v-21z"/>
    <glyph glyph-name="partialdiff" unicode="∂" horiz-adv-x="1091" d="M633 815h-2q-137 0 -244 -121q-125 -147 -174 -387q-25 -111 11 -183t124 -73q133 0 279 217q98 150 184 400q-12 51 -59 99t-119 48zM604 899h2q74 0 142 -36t100 -105q49 158 65 221q77 329 -61 458q-59 56 -147 56q-137 0 -310 -119q-16 -2 -29 23q-30 58 -6 110 q152 86 308 86q276 0 364 -293q62 -198 -2 -494t-207 -503q-211 -315 -489 -315q-170 0 -248 110t-37 308q41 196 199 344t356 149z"/>
    <glyph glyph-name="Delta" unicode="∆" horiz-adv-x="1302" d="M891 100l-184 1065l-627 -1065h811zM1102 0h-1155l10 53l817 1364l88 25l252 -1389z"/>
    <glyph glyph-name="product" unicode="∏" horiz-adv-x="1583" d="M1528 1425v-55q-131 -8 -159 -32t-28 -117v-1174q0 -104 29 -132t154 -38v-55h-537v55q119 10 143 35t25 135v1241q0 43 -13 55t-61 13h-405q-46 0 -58 -10t-12 -52v-1247q0 -106 22 -133t132 -37v-55h-522v55q124 10 152 37t28 133v1174q0 93 -29 117t-160 32v55h1299z "/>
    <glyph glyph-name="summation" unicode="∑" horiz-adv-x="1308" d="M233 -186v51l459 704l-448 805v51h930q2 -51 24 -333l-57 -13q-41 235 -131 266q-41 13 -152 13h-381l377 -664l-457 -717h521q135 0 180 37t108 209l58 -16l-90 -393h-941z"/>
    <glyph glyph-name="minus" unicode="−" horiz-adv-x="1228" d="M96 432v172h1037v-172h-1037z"/>
    <glyph glyph-name="uni2215" unicode="∕" horiz-adv-x="342" d="M-336 -33l948 1508h93l-949 -1508h-92z"/>
    <glyph glyph-name="uni2219" unicode="∙" horiz-adv-x="569" d="M152 592q0 59 45 103t102 44t102 -44t45 -103q0 -60 -45 -104t-102 -44t-102 44t-45 104z"/>
    <glyph glyph-name="radical" unicode="√" horiz-adv-x="1312" d="M1280 1819l-344 -2128l-43 -23l-444 1129l-177 -84l-24 67l325 152l338 -891h4l281 1796z"/>
    <glyph glyph-name="infinity" unicode="∞" horiz-adv-x="1607" d="M1200 795h-2q-77 0 -143 -57t-105 -103q-39 -45 -43 -49q101 -119 163 -166t141 -47t130 63q51 62 51 152t-52 148q-54 58 -140 59zM483 373h2q53 -1 107 31t85 63q29 31 61 67t38 41q-102 129 -162 174t-144 45q-83 0 -135 -60q-52 -62 -52 -152t57 -150t143 -59z M1511 590v-2q0 -146 -93 -238t-218 -92q-90 0 -174 53t-186 178q-96 -113 -180 -172t-200 -59t-207 91t-91 233t91 233q91 92 230 92q103 0 189 -59t176 -170q111 125 168 166q92 63 210 63t201 -88q84 -88 84 -229z"/>
    <glyph glyph-name="integral" unicode="∫" horiz-adv-x="956" d="M826 1540q-38 0 -64 50t-45 50q-96 0 -82 -340l39 -784q43 -926 -324 -926q-55 0 -91 30t-37 72t32 70t71 29q37 0 63 -53t46 -53q45 0 67 91q21 91 13 247l-41 841q-43 866 320 867q45 0 85 -26t41 -71q1 -46 -27 -70t-66 -24z"/>
    <glyph glyph-name="approxequal" unicode="≈" horiz-adv-x="1161" d="M815 272q-88 0 -225 80q-109 68 -173 68q-65 0 -107 -38t-89 -110l-80 68q45 90 121 143t158 53t148 -35q54 -29 122 -70q68 -40 126 -40t98 35t87 113l78 -70q-102 -197 -264 -197zM411 891q71 1 107 -15q86 -38 118 -59t40 -25t21 -12q57 -38 122 -37q94 1 182 148 l78 -70q-102 -197 -264 -196q-55 0 -101 17t-124 63q-179 117 -281 29q-43 -38 -88 -107l-80 67q45 88 122 142t148 55z"/>
    <glyph glyph-name="notequal" unicode="≠" horiz-adv-x="1198" d="M1100 838v-121h-336l-125 -281h461v-121h-508l-103 -227l-96 39l86 188h-282v121h329l125 281h-454v121h501l101 225l96 -41l-84 -184h289z"/>
    <glyph glyph-name="lessequal" unicode="≤" horiz-adv-x="1234" d="M1139 4h-906v123h906v-123zM1133 207l-889 446v129l886 447v-142l-761 -366v-4l764 -369v-141z"/>
    <glyph glyph-name="greaterequal" unicode="≥" horiz-adv-x="1234" d="M1135 4h-899v123h899v-123zM246 1229l889 -447v-129l-889 -446v141l762 369v4l-762 366v142z"/>
    <glyph glyph-name="lozenge" unicode="◊" horiz-adv-x="1325" d="M1092 686l-332 705h-6l-334 -703l334 -704h6zM1229 686l-402 -829h-145l-399 829l403 836h141z"/>
    <glyph glyph-name="zero.taboldstyle" unicode="" d="M362 271q0 -129 54 -187t133 -59q188 1 318 195t130 394q0 125 -60 214q-60 90 -173 90t-211 -116q-99 -116 -145 -259t-46 -272zM104 362q0 254 171 436t417 181q158 0 250 -97t92 -260t-80 -323q-43 -88 -103 -160q-59 -71 -155 -117t-209 -47q-171 1 -277 105 t-106 282z"/>
    <glyph glyph-name="one.taboldstyle" unicode="" d="M158 0l10 37h137l244 881h-160l10 36h582l-10 -36h-148l-248 -881h168l-10 -37h-575z"/>
    <glyph glyph-name="two.taboldstyle" unicode="" d="M686 708q0 104 -51 162q-51 59 -148 60q-53 0 -110 -29t-57 -61t52 -57q52 -27 70 -49t17 -64q0 -42 -32 -72q-32 -31 -88 -31t-93 40t-37 114q0 102 93 180t271 78q179 0 269 -80t90 -205q0 -153 -150 -243q-72 -43 -146 -74t-176 -73q-101 -42 -167 -79v-4h559l47 86 l33 -10q-71 -137 -137 -297h-719q43 108 124 186q82 78 162 122t155 91t122 126t47 183z"/>
    <glyph glyph-name="three.taboldstyle" unicode="" d="M743 793q0 150 -174 149q-80 0 -141 -39t-61 -76q0 -25 45 -25q44 0 72 -29q28 -30 28 -78t-33 -85t-93 -37t-96 39t-36 101q0 102 94 184t242 82q195 0 291 -94t96 -226q0 -305 -483 -337v-5q158 -37 244 -121t87 -221q0 -138 -117 -287q-58 -75 -162 -123t-250 -48 q-145 -1 -240 75t-95 209q0 79 44 139q43 60 109 60q142 0 142 -137q0 -51 -31 -86t-71 -35t-76 17t-39 18q-29 0 -29 -33q0 -74 68 -126t162 -52t150 57t117 224q60 167 60 286q0 178 -245 178h-70l10 37q166 0 232 10t102 43q61 55 104 175t43 217z"/>
    <glyph glyph-name="four.taboldstyle" unicode="" d="M502 147l172 588l-4 4l-547 -592h379zM326 -449l131 449h-477l14 51l854 928h137l-235 -832h206l-38 -147h-209l-125 -449h-258z"/>
    <glyph glyph-name="five.taboldstyle" unicode="" d="M735 889q80 1 134 25t122 85q-23 -151 -149 -247t-285 -97q-27 -1 -80 9t-71 18l-119 -373l4 -4q127 133 274 133t243 -88t95 -246q-1 -207 -193 -397t-442 -190q-124 1 -200 71t-76 153t46 129t103 46t92 -35t35 -88q0 -81 -70 -107t-71 -61q0 -35 42 -59t97 -25 q90 0 164 76q122 125 180 402q23 105 23 195q0 174 -139 175q-131 0 -254 -215l-27 6q130 396 167 541q38 145 58 258q174 -90 297 -90z"/>
    <glyph glyph-name="six.taboldstyle" unicode="" d="M117 432q0 507 402 841q215 177 405 177q96 0 146 -46t50 -108t-33 -102q-33 -39 -91 -39t-90 29t-32 71q0 41 27 75t27 46q0 37 -45 37q-105 0 -241 -230t-226 -518t-90 -458q0 -95 43 -145t106 -50q107 0 167 131t103 309t43 259q0 162 -81 161q-21 0 -37 -11 q-32 -21 3 -84q19 -36 19 -81t-30 -78q-30 -32 -75 -32q-44 0 -74 32t-30 80q0 78 67 138q68 60 182 61q114 0 202 -85t88 -267q0 -125 -59 -252t-183 -222t-288 -95t-270 130q-105 132 -105 326z"/>
    <glyph glyph-name="seven.taboldstyle" unicode="" d="M424 -172q0 -53 42 -62q42 -10 73 -44t31 -88t-39 -98q-38 -42 -98 -42t-97 42t-37 95q0 111 166 401t444 648l-4 4q-201 -41 -325 -41t-301 49l-80 -147l-25 12q133 258 207 506l27 -12q-10 -53 -23 -97q172 -66 372 -66t382 66l18 -16q-233 -264 -483 -639t-250 -471z "/>
    <glyph glyph-name="eight.taboldstyle" unicode="" d="M98 295q0 139 109 254t291 184q-76 121 -97 176q-20 55 -20 127q0 164 122 289q121 125 285 125t249 -78t85 -196q0 -199 -327 -375q180 -229 180 -388t-130 -298t-366 -140q-165 1 -273 91t-108 229zM578 1210q0 -102 198 -379q166 86 238 167q72 82 72 182t-77 167 t-185 67t-178 -52q-68 -50 -68 -152zM766 260q0 68 -48 155t-204 290q-190 -79 -284 -183t-95 -210q1 -106 59 -175q104 -125 262 -125t234 71t76 177z"/>
    <glyph glyph-name="nine.taboldstyle" unicode="" d="M121 389q0 240 155 415q156 175 390 175q166 0 267 -128t101 -334q0 -205 -85 -399t-213 -322t-270 -204t-250 -76t-168 47q-58 45 -58 113t36 108t93 40t87 -33t30 -70t-31 -81t-31 -54q0 -12 16 -22t41 -10q100 0 248 235q147 235 253 525t106 446q0 84 -37 133 t-101 49t-124 -60q-62 -60 -142 -304t-80 -367t78 -123q55 0 55 51q0 10 -20 46q-21 36 -21 78t29 71q29 28 74 28t76 -28t31 -84q0 -58 -63 -122q-62 -64 -163 -65q-101 0 -199 67q-49 34 -79 102t-31 157z"/>
    <glyph glyph-name="dollar.taboldstyle" unicode="" d="M281 1016q0 166 126 304t332 138q37 0 47 -2l66 223h47l-65 -227q90 -14 206 -66t133 -53q18 -1 34 25q17 26 20 28l24 -8q-78 -227 -127 -422l-30 7q6 47 6 90q0 139 -74 239t-203 121l-139 -475q83 -41 104 -50t62 -31t54 -32q13 -11 46 -33t45 -37t34 -40 q52 -59 52 -156q1 -239 -157 -407t-394 -168q-59 0 -120 14l-68 -236h-47l72 246q-75 23 -177 78t-133 55q-57 0 -92 -73l-26 10q123 377 153 491l31 -10l-6 -88q0 -358 260 -430l178 608q-67 31 -105 53q-114 69 -149 168q-20 61 -20 146zM897 381q0 55 -47 104t-84 67 q-97 48 -172 79l-174 -600q41 -10 110 -11q166 0 266 96t101 265zM723 1421q-47 -1 -122 -25t-130 -82t-55 -133t58 -123t169 -102l133 463q-6 2 -53 2z"/>
    <glyph glyph-name="cent.taboldstyle" unicode="" d="M391 172q0 -98 51 -127l228 819q-111 -53 -195 -324q-84 -270 -84 -368zM145 302q0 128 52 242q92 205 306 311q93 46 181 56l49 176h41l-49 -174q113 0 191 -44t77 -148q0 -57 -42 -103t-103 -47q-61 0 -99 39t-38 112q-1 80 81 110q26 10 27 22q0 23 -84 23h-20 l-236 -846q18 -10 58 -11q100 0 195 77t142 182l31 -13q-143 -283 -397 -282q-16 0 -41 4l-47 -166h-41l47 168q-135 20 -208 102t-73 210z"/>
    <glyph glyph-name="dollar.oldstyle" unicode="" d="M281 1016q0 166 126 304t332 138q37 0 47 -2l66 223h47l-65 -227q90 -14 206 -66t133 -53q18 -1 34 25q17 26 20 28l24 -8q-78 -227 -127 -422l-30 7q6 47 6 90q0 139 -74 239t-203 121l-139 -475q83 -41 104 -50t62 -31t54 -32q13 -11 46 -33t45 -37t34 -40 q52 -59 52 -156q1 -239 -157 -407t-394 -168q-59 0 -120 14l-68 -236h-47l72 246q-75 23 -177 78t-133 55q-57 0 -92 -73l-26 10q123 377 153 491l31 -10l-6 -88q0 -358 260 -430l178 608q-67 31 -105 53q-114 69 -149 168q-20 61 -20 146zM897 381q0 55 -47 104t-84 67 q-97 48 -172 79l-174 -600q41 -10 110 -11q166 0 266 96t101 265zM723 1421q-47 -1 -122 -25t-130 -82t-55 -133t58 -123t169 -102l133 463q-6 2 -53 2z"/>
    <glyph glyph-name="zero.oldstyle" unicode="" horiz-adv-x="1101" d="M344 271q0 -129 54 -187t132 -59q188 0 319 194q130 195 130 395q0 125 -60 214q-60 90 -173 90t-211 -116q-99 -116 -145 -259t-46 -272zM86 362q0 254 171 436t417 181q158 0 250 -97t92 -258t-80 -325q-43 -88 -103 -160q-59 -71 -155 -117t-209 -47q-171 1 -277 105 t-106 282z"/>
    <glyph glyph-name="one.oldstyle" unicode="" horiz-adv-x="720" d="M-51 0l10 37h137l244 881h-160l10 36h582l-10 -36h-148l-247 -881h168l-11 -37h-575z"/>
    <glyph glyph-name="two.oldstyle" unicode="" horiz-adv-x="909" d="M571 708q0 104 -51 162q-51 59 -147 60q-53 0 -111 -29t-57 -61q0 -32 52 -57q52 -27 70 -49q17 -22 17 -64t-32 -72q-32 -31 -88 -31t-93 40t-37 114q0 102 93 180t271 78t269 -80q90 -80 90 -205q0 -153 -149 -243q-72 -43 -246 -115t-244 -111v-4h559l47 86l33 -10 q-71 -137 -137 -297h-719q43 108 124 186t162 122t155 91t122 126q47 79 47 183z"/>
    <glyph glyph-name="three.oldstyle" unicode="" horiz-adv-x="950" d="M649 793q0 150 -174 149q-80 0 -141 -39t-62 -76q0 -25 45 -25t73 -29q28 -30 28 -78t-33 -85t-93 -37t-96 39t-36 101q0 102 94 184t242 82q194 0 290 -94t97 -226q0 -305 -484 -337v-5q158 -37 245 -121t87 -220q0 -137 -118 -288q-58 -75 -162 -123t-249 -48 q-145 -1 -240 75t-95 209q0 79 44 139q43 60 109 60q142 0 142 -137q0 -51 -31 -86t-71 -35t-76 17t-39 18q-29 0 -29 -33q0 -74 68 -126t162 -52t150 57t117 224q60 167 60 286q0 178 -246 178h-69l10 37q166 0 232 10t114 54q49 44 92 164t43 217z"/>
    <glyph glyph-name="four.oldstyle" unicode="" horiz-adv-x="950" d="M408 147l172 588l-5 4l-546 -592h379zM231 -449l131 449h-477l15 51l854 928h137l-236 -832h207l-39 -147h-209l-125 -449h-258z"/>
    <glyph glyph-name="five.oldstyle" unicode="" horiz-adv-x="909" d="M621 889q80 1 134 25t122 85q-23 -151 -150 -247t-285 -97q-27 -1 -80 9t-71 18l-119 -373l4 -4q126 133 274 133t243 -88t95 -246q0 -207 -192 -397t-442 -190q-123 1 -200 71t-77 153t46 129q45 46 103 46t93 -35t35 -88q0 -81 -71 -107t-71 -61t42 -59t98 -25 q90 0 164 76q74 77 115 187q89 235 87 395q0 106 -35 148t-104 42q-131 0 -254 -215l-27 6q130 396 167 541q38 145 59 258q174 -90 297 -90z"/>
    <glyph glyph-name="six.oldstyle" unicode="" horiz-adv-x="1101" d="M98 432q0 194 58 356q100 283 330 472q230 190 419 190q97 0 147 -46t50 -108t-33 -102q-33 -39 -91 -39t-90 29t-32 71q0 41 27 75t26 46q0 37 -45 37q-106 0 -241 -230t-225 -518t-91 -458q0 -95 43 -145t107 -50q107 0 167 131t103 309t43 259q0 162 -82 161 q-20 0 -36 -11t-17 -29q0 -18 19 -55q20 -36 20 -81t-31 -78q-31 -32 -75 -32t-74 32t-29 80q0 78 66 139q67 60 182 60t203 -85t88 -267q0 -125 -60 -252t-183 -222q-124 -95 -288 -95q-163 0 -269 130q-106 132 -106 326z"/>
    <glyph glyph-name="seven.oldstyle" unicode="" horiz-adv-x="1024" d="M512 -366q0 -54 -38 -98q-38 -42 -98 -42t-97 42t-37 95q0 111 166 401t444 648l-4 4q-201 -41 -325 -41t-302 49l-80 -147l-24 12q133 258 207 506l26 -12q-10 -53 -22 -97q172 -66 372 -66t381 66l19 -16q-234 -264 -484 -639t-249 -471q0 -53 36 -61q47 -11 78 -45 t31 -88z"/>
    <glyph glyph-name="eight.oldstyle" unicode="" horiz-adv-x="1064" d="M61 295q0 139 109 254t291 184q-76 121 -96 176t-21 127q0 164 122 289t286 125t248 -78q85 -78 85 -196q0 -199 -327 -375q180 -229 180 -388t-130 -298t-366 -140q-164 1 -272 91t-109 229zM541 1210q0 -102 198 -379q166 86 238 167q72 82 72 182t-77 167 q-78 67 -186 67t-176 -52q-68 -50 -69 -152zM729 260q0 68 -48 155t-204 290q-190 -79 -284 -183q-95 -104 -95 -210t58 -175q104 -125 263 -125q158 0 234 71t76 177z"/>
    <glyph glyph-name="nine.oldstyle" unicode="" horiz-adv-x="1101" d="M102 389q0 240 156 415t389 175q166 0 267 -128q102 -128 102 -334q0 -205 -85 -399t-213 -322t-270 -204t-252 -76q-108 0 -166 47q-58 45 -58 113t35 108q36 40 93 40t87 -33t30 -70t-31 -81q-30 -44 -30 -54q0 -12 16 -22t41 -10q100 0 248 235q147 235 253 525 t105 446q0 84 -37 133t-100 49t-125 -60q-61 -60 -141 -304t-80 -367t78 -123q55 0 55 51q0 10 -20 46q-21 36 -21 78t29 71q29 28 73 28t76 -28q31 -28 31 -84q-1 -58 -63 -122t-163 -65q-101 0 -198 67q-49 34 -80 102t-31 157z"/>
    <glyph glyph-name="cent.oldstyle" unicode="" d="M391 172q0 -98 51 -127l228 819q-111 -53 -195 -324q-84 -270 -84 -368zM145 302q0 128 52 242q92 205 306 311q93 46 181 56l49 176h41l-49 -174q113 0 191 -44t77 -148q0 -57 -42 -103t-103 -47q-61 0 -99 39t-38 112q-1 80 81 110q26 10 27 22q0 23 -84 23h-20 l-236 -846q18 -10 58 -11q100 0 195 77t142 182l31 -13q-143 -283 -397 -282q-16 0 -41 4l-47 -166h-41l47 168q-135 20 -208 102t-73 210z"/>
    <glyph glyph-name="fi" unicode="ﬁ" horiz-adv-x="1251" d="M932 1505q126 0 194 -33q68 -32 96 -76t28 -108t-43 -101q-42 -38 -100 -38t-99 36t-41 85q0 82 83 129q28 16 27 26q-1 53 -141 55q-54 0 -115 -29q-61 -30 -106 -88q-45 -59 -76 -109q-55 -89 -121 -365h455q125 0 188 45l-223 -731q-31 -109 -31 -111q0 -43 37 -43 q43 1 96 59t78 107l29 -16q-127 -223 -303 -224q-62 -1 -116 47t-54 105t24 139l183 586h-369l-115 -524q-33 -144 -106 -320q-74 -176 -137 -286q-64 -110 -148 -188t-156 -77q-72 0 -128 35q-54 36 -54 98t37 96t96 34t93 -34q32 -34 32 -79t-26 -75t-62 -34v-4 q94 0 137 73t67 210q175 977 206 1075h-148l9 37h149q193 616 674 616z"/>
    <glyph glyph-name="fl" unicode="ﬂ" horiz-adv-x="1251" d="M936 1505q131 0 192 -86l191 86l-381 -1302q-31 -109 -31 -111q0 -43 37 -43q43 1 96 59t78 107l29 -16q-127 -223 -303 -224q-62 -1 -116 47t-54 105t24 139l281 959q-98 23 -98 102t49 110q16 11 16 19t-17 16t-53 9q-36 0 -81 -22q-45 -23 -79 -65q-73 -91 -102 -176 q-29 -86 -42 -130t-30 -110q-17 -67 -24 -89h176l-8 -37h-174l-115 -524q-33 -144 -106 -320q-74 -176 -137 -286q-64 -110 -148 -188t-156 -77q-72 0 -128 35q-54 36 -54 98t37 96t96 34t93 -34q32 -34 32 -79t-26 -75t-62 -34v-4q94 0 137 73t67 210q175 977 206 1075 h-148l9 37h149q193 616 678 616z"/>
    <glyph glyph-name="one.superior" horiz-adv-x="739" d="M180 586l6 24h93l217 703q-106 -53 -254 -103l6 33q215 74 448 215h31l-258 -848h96l-6 -24h-379z"/>
    <glyph glyph-name="two.superior" horiz-adv-x="739" d="M606 1313q0 121 -125 121q-66 0 -129 -37t-63 -76q0 -34 57 -46t57 -67q0 -36 -20 -64t-61 -28q-94 0 -94 108t86 172q87 62 202 62t195 -50t80 -150t-69 -180q-69 -79 -156 -122q-274 -136 -353 -223h387q41 0 76 78h33l-129 -225h-494q44 115 228 270q71 59 139 124 q153 146 153 333z"/>
    <glyph glyph-name="three.superior" horiz-adv-x="739" d="M635 1354q1 80 -115 80q-60 0 -104 -24q-43 -24 -43 -42q1 -6 23 -10t46 -22t23 -52q0 -70 -78 -72q-43 0 -69 24t-25 62q0 72 76 116t175 44t175 -47t76 -143q0 -201 -320 -207v-4q103 -23 163 -68t60 -133q0 -129 -106 -206t-225 -77t-191 44t-72 128q0 45 30 86t73 41 t69 -24t27 -57q0 -35 -18 -57q-29 -36 -94 -12q-24 9 -27 9q-23 0 -23 -37q-1 -36 57 -60t134 -24t135 119t59 217q0 51 -26 75q-27 24 -66 26l-127 8v20h113q115 0 165 79t50 200z"/>
    <glyph glyph-name="a.superior" horiz-adv-x="739" d="M600 1348q0 34 -20 60t-56 26t-72 -62q-34 -62 -85 -208q-51 -148 -51 -202t45 -55q46 0 92 48t79 128q68 176 68 265zM657 883q-79 0 -107 35t-28 94h-4q-72 -129 -174 -129t-139 53t-37 149q0 131 99 252t233 121q102 0 125 -84h4l22 70h176l-131 -410q-26 -80 -26 -97 t32 -17t79 61q22 26 30 37l16 -10l-26 -32q-7 -10 -21 -24l-25 -25q-11 -11 -19 -15t-18 -12q-27 -17 -61 -17z"/>
    <glyph glyph-name="o.superior" horiz-adv-x="665" d="M555 1434q-37 0 -66 -29q-47 -47 -79 -158q-70 -182 -70 -261t78 -79q43 0 78 39q35 40 43 74t46 175t39 190t-69 49zM772 1233q0 -133 -105 -242t-233 -109t-185 66q-56 66 -56 180t108 223q109 107 229 107t181 -62t61 -163z"/>
    </font>
</defs>
</svg>
